<mxfile host="app.diagrams.net" agent="Mozilla/5.0 (Windows NT 10.0; Win64; x64) AppleWebKit/537.36 (KHTML, like Gecko) Chrome/128.0.0.0 Safari/537.36" version="24.7.13">
  <diagram id="C5RBs43oDa-KdzZeNtuy" name="Page-1">
    <mxGraphModel dx="880" dy="1595" grid="1" gridSize="10" guides="1" tooltips="1" connect="1" arrows="1" fold="1" page="1" pageScale="1" pageWidth="827" pageHeight="1169" math="0" shadow="0">
      <root>
        <mxCell id="WIyWlLk6GJQsqaUBKTNV-0" />
        <mxCell id="WIyWlLk6GJQsqaUBKTNV-1" parent="WIyWlLk6GJQsqaUBKTNV-0" />
        <mxCell id="zkfFHV4jXpPFQw0GAbJ--17" value="Cine" style="swimlane;fontStyle=0;align=center;verticalAlign=top;childLayout=stackLayout;horizontal=1;startSize=26;horizontalStack=0;resizeParent=1;resizeLast=0;collapsible=1;marginBottom=0;rounded=0;shadow=0;strokeWidth=1;" parent="WIyWlLk6GJQsqaUBKTNV-1" vertex="1">
          <mxGeometry x="374" y="140" width="172" height="120" as="geometry">
            <mxRectangle x="550" y="140" width="160" height="26" as="alternateBounds" />
          </mxGeometry>
        </mxCell>
        <mxCell id="zkfFHV4jXpPFQw0GAbJ--18" value="- local:string" style="text;align=left;verticalAlign=top;spacingLeft=4;spacingRight=4;overflow=hidden;rotatable=0;points=[[0,0.5],[1,0.5]];portConstraint=eastwest;" parent="zkfFHV4jXpPFQw0GAbJ--17" vertex="1">
          <mxGeometry y="26" width="172" height="26" as="geometry" />
        </mxCell>
        <mxCell id="zkfFHV4jXpPFQw0GAbJ--19" value="- salas:sala" style="text;align=left;verticalAlign=top;spacingLeft=4;spacingRight=4;overflow=hidden;rotatable=0;points=[[0,0.5],[1,0.5]];portConstraint=eastwest;rounded=0;shadow=0;html=0;" parent="zkfFHV4jXpPFQw0GAbJ--17" vertex="1">
          <mxGeometry y="52" width="172" height="26" as="geometry" />
        </mxCell>
        <mxCell id="zkfFHV4jXpPFQw0GAbJ--23" value="" style="line;html=1;strokeWidth=1;align=left;verticalAlign=middle;spacingTop=-1;spacingLeft=3;spacingRight=3;rotatable=0;labelPosition=right;points=[];portConstraint=eastwest;" parent="zkfFHV4jXpPFQw0GAbJ--17" vertex="1">
          <mxGeometry y="78" width="172" height="8" as="geometry" />
        </mxCell>
        <mxCell id="zkfFHV4jXpPFQw0GAbJ--25" value="+ validarDisponibilidadSala()" style="text;align=left;verticalAlign=top;spacingLeft=4;spacingRight=4;overflow=hidden;rotatable=0;points=[[0,0.5],[1,0.5]];portConstraint=eastwest;" parent="zkfFHV4jXpPFQw0GAbJ--17" vertex="1">
          <mxGeometry y="86" width="172" height="26" as="geometry" />
        </mxCell>
        <mxCell id="72rKa9FHGVQ0cqd9UQtA-0" value="" style="shape=image;verticalLabelPosition=bottom;labelBackgroundColor=default;verticalAlign=top;aspect=fixed;imageAspect=0;image=data:image/png,iVBORw0KGgoAAAANSUhEUgAAAkEAAACtCAYAAAC3Hat9AAAAAXNSR0IArs4c6QAAAARnQU1BAACxjwv8YQUAAAAJcEhZcwAADsMAAA7DAcdvqGQAAMxYSURBVHhe7J0HXBTX2of/bGUpSpMqIEWIYAUsKBaw916ipthivJprjLEk1ogm8Us01ug1mIgoCioGEEVpwUZiwYIgFpKgGBQLIoIgu/t+swVYYGEH1DTnuT9y3bNnzpzztvPuzJw5esQADg4ODg4ODo7XDJ76/zk4ODg4ODg4Xiu4JIiDg4ODg4PjtYRLgjg4ODg4ODheS7gkiIODg4ODg+O1hEuCODg4ODg4OF5LuCSIg4ODg4OD47WES4I4ODg4ODg4Xku4JIiDg4ODg4PjtYRLgjg4ODg4ODheS3QmQYUpQVi8aCMS7srVJRpIr+HAqk8RuO+qukA30rRQLFv8LZLvK9qTIi10GRZ/mwzlxxeh+BZOBK/AzAnD0TcgAP1HTcWSoBO481z9PYM0IxyBizdoH8u/hqfIfyxV/1uKjPBALN6QgH/vkP8GY5RmIDxwMTYk3MW/2bJ0Ir2H8we24Mvly7ByQxh+/kPD+V4JLzF+1BPpxRAsXbwVJ/Jf7omrttsw236a/5g5UkFDfUMzhrzusJCh9CJCli7G1hP56oIG8rLa+Sv4J/ddsW1G7cjoj009SST0puWXy9RlGjyLoSk2ArJ8J1JdoJuisDHUSNSJvsiUKj5R2JhGJOr0BSk/NpBn6dtp4htGxNO3Ja9+Y2nSlHdptL87mQgEZNF1GSU/Utf78W1qIvKiZZe0jOXfwLNT9Lm/Mw3c/AejOWUB/fh2ExJ5LaN/65D/FmN89iO93UREXssu0b9WzDqQ5SXQoi7mJDRyIO9uXcjTSp8ETXrQ5z8/Vdd4Fbyc+NEQinYNJwNRV/r615d74qrt1te2n9Gpz/3JeeBm+kMZABrgGzViyOsOCxkW7aLhBiLq+vWv6oIG8rLa+Sv4B/f9n387rPAnfDr6PwgvG4Tvzl3D+SN78X3QDwhPvIJLYe/A/JfPMemTWBQwVfWHBiOv9DyWtxaojv23UXIVJ0/noKRiNzh9DA3OQ+n55fi3DvlvMUb9oQjOK8X55a3xrxVznRTg6OKp+L/fu2LTL9dwLvkkLqdFY4blaaz6ZDt+k6mrcdST+tp2Ca6ePI2cigDQAN+oEUNed16HGPp6w1/OoP63FghPz4Zg3dESdJ0+FT2squVM0huIWr8X113GYt4wd3Xhc+SeOYiQkHAcSkrF7yWmcHa1YExJRVn6fqw5WICuMybDz0KG9P1rcLCgK2ZMbIRjqzYgttAZndxNK+/TPU9DaOBGnNBrg/bNDNSF5ciRHfQepu5+jgk7Y7CsSyN1uQIeGrfwg9XNA4jPMoXvuB6wux6OVesTIPVoD2cjGTLCV2FjaiP42txFZPAOhB8+jRtFZnBxbQJ9PXUzCmT3cSl6N3aGRSHh/G8oMXOGq4V6RIpbIas24aJJR1jdPogfftiHY6m5EDu2QFPjMtw6sQfbgyOQkJaPRq7usJZUNiwvuI6kA3sQFhGNo8nnkVXYCM1crWBQMXgp7l2IRtje/Yg8loLM+3xYu9ijsTZnLExB0MogRKfcwCNZKfLyxejZwV45xvUJUni0d4aR8tQy3L8Ujd07wxCVcB6/lZhV0Y/iluGqjalo5GuDu5HB2BF+GKdvFMHMxRVNqgqlznaqUoRfvg/ElhQeWns3g2FFM0/x8/ZAbE2VoL2XPcSMPguuJ+HAnjBERB9F8vksFDZqBlcrA5U9SK9gb+BmXDJ2RkHsFgQfzUSJtSuex39VbYx126AC6b0LiA7bi/2Rx5CSeR98axfYaxVsJdK8i4jeHYLwqAScyy6DhYszzMWKLxQ2sB4JUg+0dzaCjK0M67IrJfXQfwVS5F1k9MKMPSrhHLLLLODibM7Itpy6ZcNe/xrkR+DT98NgtTgS3wyygKKWnqEjPJ1M0djKDa3au8JU688t3eOr20fKKuPHZD9YKMt02BBDQ3SPpzcRt/sHhEYdx/USSzgXx2N9VDH8Z72LzurBye5fYuxjJ8IY+zj/WwnMnF1RRZ3aqLNdeU3/ld7Dhegw7N0fiWMpmbjPt4aLfWMm+S5EStBKBEWn4MYjGUrz8iFu2RbPDn9eebxMYacbkdrIFzZ3IxG8IxyHT99AkZkLXJvoQ09rDHFSdlNnrKq1X3Whw1blBbiedAB7wiIQfTQZ57MK0aiZK6yUJ1XcplqFDecM0cH8V4QF7cCPx9PxSOKI5raGVZ7z0B1nGaR5uMj4Ykg444vnslFm4QJnlXNriaFPcTNuN34IjcLx6yWwdC5G/PooFPvPwqTOpooKOvpeDot2/ooY8bL6zqqdvwHqK0K1UM/bYdJsOjCjLTXmG5K9Vw8K6OxO5iIR2Q9cS2cLVVVqvR32/A79r78xibw/I81TFcVOJwdRS/rkjLZrkXkUNNCQ+PbT6ViJuqgOqt4OU13mFLfrT33tzcjRuxt192pKBjx9cpseTXnqa8Gyh0m0tJslCQ1sqWUXf+raypokYkcauukS0wKD8laIAbXrE0BNmzQnX/8u5GYqIKHjOFo6rxvZ2XhQl+7eZG/II4O2n9Ap5UFEJZc20AA7ERnYtqFuvXpRtza2JOEJyWF8KOUoz11Kl9f3ISuhCTl38Kfe/j7kYMSnRt6LKFktyyrkH6OV43zJjs8n2w7DacKiA0xhtUu5soeUtLQbWQoNyLZlF/Lv2oqsJWJyHLqJLqn7pZSRuB3172tPZo7e1K27FzU14JG+23SKrhSKznaqIqVrq7uQvnE/2npH4yL7w1AaZSamjqsymBoldGnDALITMW226Ua9enWjNrYS4gkdaHxojurS/LP9NN5UTK6e7mTt5kvdvL1pWsQfVcfIwgZLL6+nPlZCMnHuQP69/cnHwYj4jbxpkVbBKmD8IPpD8jbhk4FdW+rm35FcTAQkcZtEYdmMHVe7HcZGhjrtqr76VyD7g6I/9CYTvgHZte1G/h1dyEQgIbdJYaToJhvZsNJ/NUp/+oCc9dtTYHohZR/fRWtXLKPAjfvo7L26bhXpHp9uH6l+O0y3DdVf90Rl176n0U5iEpo4kU+X9tTc3Iw827iQsOK2lYweJi2lbpZCpq8tqYt/V2plLSGx41DapN0hlOhut5r/ll6m9X2smPrO1MG/N/n7OJARvxF5L0qmQsqnYyvHka8dn/i2HWj4hEV04FZR1eOVdiqmdv37kr2ZI3l3605eTQ2Ip+9G06PzSKY1hrDQQ539qgVdtlpyiTYMsCMR4x9tuvWiXt3akK2ER0KH8RSqPKlaNi39qbutOTXv2o/6dHAgQ4EFdf3sBD1WnoSNDSm6Ek0fepsQ38CO2nbzp44uJiSQuNGksGwmLlXTQdk1+n60E4kZu3Xy6ULtm5uTmWcbchFq3ArS2XcGFu38JTHiJfWdVTt/E9glQTxjcvTqTJ07V/vz9SRrEV+dBMkod+cIshDY0rD/ZaiVJKO8hI/J21BMrRamKEtqfyaIqbtzOJkK29LSCwprU1BI0ZPtSOy9vEpiVEHZL7TQU0Ai//V0i4VctSVBPL49jQ35lQmfCh5R7PuuJDAcSEF5is+FzGcnEtqNoG3p5c82PKGzn/cgU4OOtCqNaUcZWHjEbzqGdv2u6mRh/ExyEeiRuO1cSnqg6Bgztr1jGWN1opmJijM9oF0jTUnoPovi1c8rKdo9MdeThPp9aEsuc0xpMv3XRUTuc44zUlJReHoheVu40X8O1fKcRX4QDRCLqOcm7c8EFca+T05COxqxLZ0qRnP2c+phasAkImnKz0oZ8fhkPzaEflUnlo+Y41wFhjRQJRRW7VRH9vtG6mloSL0331L3jZFJ8HAyMehOa7MYW3iwi0aaCsl9VjyjBTVPTtBcTyHp99lCCpGokiDGkVrOo9MVItAcIxsbLKXk/7qQyH0OHa8ULC30tiC3/xyqGE8VnhyiKfZCsui7ji6rjym9sZUGMZOe06xEKtGWBNUpQxZ21QD9Pzk0heyFFtR33WX1MaV0Y+sgJll1olmJxaz8k43+q1O4cxhJhB3ozUltyaKJG3Xs4UceliIS2vShr89q76vu8bHwkSrxg/mo04YaoHvZXQoebkbCZuNo181SZZH0TgzNbKVPekJ1slIYS+87CcluxDaqVOdZ+ryHKRl0XEUKddaATbvV/Lc0+b/kInKnOZWdp9MLvcnC7T+kMol8ChogJlHPTdqfCSqPVfZjKaRSufS+q4AMBwYxPykZasQQ3XrQ3a+a1G2rJYwqRzJzgTvNqjwpo8q55CnUpz5bcplP5fHbhoZsSVe3kU8pS33JWOylnkPY2NATOjTFnoQWfWldpXPT1kFM8uE0ixJLqsaXu0zMMhM2o3G7bjI9ZpDeoZiZrUhfT1iRAOjuO5t2/ooYwUbuL0sGfx/YXZfSk8DarSVatWpV9a+lM8yE6jooQNzBeBS0mITFk1uoL6/z0CRgET4eYIDMHw8oS2qHqTv4TfQzScfBfRehXJtQEIfwmEfwGj0WHtou78mlKCtjuicUQ7+BV9j4doMwbbST+lKgKbr6e8Hw+T3k3pcBJcnYF5kD6+794PEkDT///DPzlw5pp55oi1RERWcpj1L03br/JIxyVHXSyKst3PgCtB45GV3NFR3jwaxtGzjp5ePhQ8UDEo0xcE0yUqKWw1995RByPVjb2UAgK0B+ATGHmMC0MSH70DdYvSMOafdKYeT7Bc7dv4bNAw3VB9WHEiTvi0SOdXf083iCNOVYfka6tBN6tgVSo6LV9Rj4dhg0bTSc1NdHTbv6w8vwOe7l3mc+1aMdDXj2o/CmvwCn9h/EbcUqC3keovYlQtZ1HMY04zMiGYg1ySmIWu7PaEGFXM8adjYCyAryoRCJCh6a9hjA9Ef9sQpsbJAHE9PGoOxD+Gb1DsSl3UOpkS++OHcf1zYPhLZmS09FIvauDUbOnY5W6juyItcp2JaUgiOLO2rcatKgLhmysat6678UpyJjcddmJOZObwVVN0VwnbINSSlHsLhjCXv/rFP/1ZGjuKgIsrKziE7rhb1pGfg56QTSMo5gluUJLP7PN0jTttBI5/hY+Eh1dNpQ/XWPwgREJRbC460FGOsiUhbxbfth8czuKL+zXZK8D5E51ujezwNP0lT+8HO6FJ1UDoHoLC0PRbFotzo8E1M0pmwc+mY1dsSl4V6pEXy/OIf71zaDfUjgw27QNIyuVC78GWd6fi8XipBXE916qH+/dNmqmFHlGiSnRGF55UmhZ20HG4EMBfmKJzxV8N3ewqeTPdRtmKDTnFnoI0lDTKRixTILGyo9hcjYu7AZORfTK50bU7YlIeXIYjBd0aAQCVGJKPR4CwvGujA9ZuDbot/imeiuoTTdfWfRzl8SI9jI/WXJ4O8Du9SBZ4/+n27G1q1bq/5teB++jdQDl93D7TvPwHd2g3uVhMUIrs3tgLs56s91YNIf4wdb4trBfTj/HMiPDcORpx0xZkxzxnW1wLeGtaUe5A9ykdvAFZ165k1godE4TySGQI8gkxHkj7OR/bAMt0Pfg5+vL3zL/wKWIKlYjns5d9RH6cHC2rqyjzw+8289GJuYKJ+PUCIQKL8nZewWwMTaGI/jv8Z7I/uiq5c77EzN4LEgmTFT5ryKJEHQErM3rEJ/QRI+n9wHbZo2gWP7oZi1LgG3GrLyWP4Y2dkPUXY7FO/5aYzFNwBLkoohv6ehHz1zNKkqFIgFeiAZEyXr044mPGsMG98Hkl8iEPG7DPLcH7EvWQ893xwBG4UVCkxgbfwY8V+/h5F9u8LL3Q6mZh5YkFzKCE3OuFA5TELZxEK7PbCyQQFazt6AVf0FSPp8Mvq0aYomju0xdNY6JNQi2OKcHDyAPVycKzJ+BgFsPLzhbqUOnNWpQ4as7Kre+i9GTs4DwN4FVbtpAw9vd1iJ6+Gfdem/BjyIRSLo6TVCnw8XoaeV6jieeQ/Mf78r9C7F4ugtLcfpHB8LH6mOThuqv+5ld2/hTjEP9k5OzNHl8GDa3AWWyugpx+PsbDwsu43Q9/w0/MEXAUuSUCy/h5w7NYOT7nZrImg5GxtW9Ycg6XNM7tMGTZs4ov3QWViXcAvsQ4IezKv4Dw8isQB6JAMT8rSgWw/175cOW2VcSmBiDePH8fj6vZHo29UL7namMPNYAJUqK5UvcHkDb6hySBUGjnC0BP64fYv5wMKGinOg6oozqnbFA97uVupEQY3sLm7dKWamQyc4afgQz7Q5XDSUprPvLNr5S2IEG7m/LBn8jajF3RqAngQSfSYhKXqKp1XGKMPTJ0WAvkT9uS6M0GvCUNhlRWL/ubs4HH4MpX5jMdpR65THJEFN0am9E+jaaZy6p02wMvy2YSBcvN7FDm2/xhTo6VUmKtXgifUh5gnRfmUGpKpbhxp/Uvy2OUBdUw98Xj1EKb+FkIl+6L8wAnfMfZhf3UuwNeYybm4bpPHwLhMQu8xDREYuss9G47sVU+FnlI6dcwdhSOCZegQ9NTwx9MU8CNuvRIa0+lgI0t82qysqYGRSu1Dq0U5VzAeNx8DGZxARcRPZTKJ7Sr8f3hxiqTRC+a0QTPTrj4URd2DuMwjTlmxFzOWb2DZI8yFAFXqMrLV2j6UN8ky7YF5EBnKzzyL6uxWY6meE9J1zMWhIIM5oEaxIos+E02coLtacJeTIz7qItOx81VXLGtQuQ3Z2VV/9i5ixM1HpWTGqdjMfWRfTkP1YWA//rEP/WtC3tYGFwACmJpq64sHE0gL6VMj88tM2u+oYHysfqQobG6qv7vUMDCBhfhQVPX2qkYgzlJTiuXJYTBKoLwZP2B4rM6TVdMn8SX/D5oCa1wp1t6sFnim6zItARm42zkZ/hxVT/WCUvhNzBw1BoLbO14JefZTLRg/17pcOW81/jlshE+HXfyEi7pjDZ9A0LNkag8s3t6F6OKCSZ3imKUDG3goZczY0asSu7yIJVF0pZtKiSuT5WbiYlo18TefWM4CBhPkxUMOHSlBaoTS57r6zaOcviRFs5P6yZPA34uUlQTwb+Hg5gs7HIiZXQzolqTiSlAOhh5e6oG70/SZghNPviA3bjIifCP5jh6uuFGhFhE4TxqJlWTI2/l8Sarym6fFP+GZLHG4XW6B501oSqbow9oL3G8CVmEhkajiDLGsH3h88GssOa7s9oBt5Xgx2RufBc04YoretwoIZEzHYzwl3Mq4xhsv8YmXEJ78fi8AJY7A8rgy23oMw5ZO12B0fhfleMmSevahc8l8DPV4dCjWGl2owiKw6GOx4fzBGLzusLtDFC7Rj3AfjBzdBavR2bN3/CxozSdEA5dVSOfJidiI6zxNzwqKxbdUCzJg4GH5Od5BxjXFlRiBV/K022Nig/D5iAydgzPI4lNl6Y9CUT7B2dzyi5ntBlnkWF7UIVr+dNzz1ruNEcg6TMqiRZWPntC7wnbYHWvPvumBhV/XXvz7aeXtC7/oJJOdUJvyy7J2Y1sUX08J4L8U/tSFs1xlekgc4m5KuEXiluJF2DU8NXOCm+ZNRja7x5bPwkaqwsKEG6J5n1RHtXQgX44+i8mV5JbiQnII89WdjL2+8gSuIiczUSIhlyNrxPgaPXobDWt7kyKbdqshxPzYQE8YsR1yZLbwHTcEna3cjPmo+vGSZOKvsvB7q81tMK9ViiO5YxaZf1dFhq7vTEbMzGnmecxAWvQ2rFszAxMF+cLqTAZUqKwUkvZSExAeVn4vPHMPxvMZo36UVqzjLODe8PfVw/UQyKrsiQ/bOaejiOw17NJ2bZ4WO7V1AF+NxVOPNiSUXkpFSrjR5nu6+s2nnr4gRbOT+smTwN+LlJUFMQtJ55sfoIzyCeUOnY31EIo7HhmDp6AlYn+WCSfPGq+vpQNQBE0a/gWvb1+EYrxfGDbWqs5MC7zn4eqY7sjePQsDEzxF2IgPZf/yOS7HfYkb/cfj2V0e8/eU8+Nb8MaYbQWtMnTcCZmdXYNiopdhxKBHx+9Zi6qjZ2H62DI4eZuqK9YNnbA8HC0JWTBD2nryMK+fiEbJsDN7ecoP5thSlz4j5cWUN3IjB6pnvYtWeOJw8lYgD3wRiV7o+OvT0g9Yzi41hLJEjM/Y77DqSpi4sR4DWU+dhhNlZrBg2Ckt3HEJi/D6snToKs7efRZmjh7qeLl6kHQP0mDgCTX/ZiA0/N8GQ8T1hpCznwdjeARaUhZigvTh5+QrOxYdg2Zi3oRJJKRiRsICFDTK/Wq1xAzGrZ+LdVXsQd/IUEg98g8Bd6dDv0BN+WgTLf2MSPhppguNLx2Dm5kgkJUVhy4cTsPKUFcbNGltHkl4LLOyq/vrn441JH2GkyXEsHTMTmyOTkBS1BR9OWIlTVuMwa6zjy/FPLfCshuM/bzrg6qYZWBBxk/mFWIzsI8sxc+Nl2I2egsFaZKprfBYsfKQqLGxIr/66h8gHM+YNhPjwXAyZvh4RRw8z/RiLCRuuViQ8gtZTMW+EGc6uGIZRS3fgUGI89q2dilGzt+NsmSM8zLQYCIt2q8L86leKbDVmvrsKe+JO4lTiAXwTuAvp+h3QU9l5MYyNJZBnxuK7XUeQ1pC3WVeLIbpjlR6LflVHh62+6Qp7BwtQVgyC9p7E5SvnEB+yDGPe3sJoT6HKZ6pmGOQPfsSHw2fj28ijOPTDpxg54Vv80e4DfDTEhFWcZZwbkz4aCZPjSzFm5mZEJiUhasuHmLDyFKzGzcLYKs4tgs+MeRgoPoy5QxQ+dBSHmX6NnbABV8uVxjNm0XcW7fwVMYKV3F+WDP5GUJ3U/43RTy4F0+wBrcjWWEQiQ0ty7zGJVsflVLxJl80bo6Xpq6iDiEdWEw9ULHWsE+kdOhY4glqZCUmPGZJiWNDjk7FrP1oQkaV6gp1B2+qwipUTap4dfIvMRZrjLaKMvfNpmJc9mYgFJDSyJs/eMykoVd2zaiuDlDz+ngaJRRSw8Y56hQXTxZv/R11EJjQ2XPFMvoxy41bQ8La2ZCQUkr6pE3UcvYTCE76kHpLGNHj7XeUxpVkHadFwb3IwEZNAKCFz1870ZuARuqUhqyrIHlDs/M5kI+ET32YKU1BzjEUZe2n+MC+yV7ZpRNaevWlmUGqFnKvKSM2zg/SWuYi8l19WF+hup1bKztAnLYUkcPuITpYrRoEsl+JWDKe2tkYkFOqTqVNHGr0knBK+7EGSxoNp+11GksrVYSLyCUynShHUHKMuG2QESwcXDSdvBxMSC4QkMXelzm8G0pFaBctQlE6hcwdRaztjxh8MyLJFX5qzW70qRdvqMJ0y1GFXDPXWP0NReijNHdSa7JixCw0sqUXfObQ7vXztiG7ZsNV/DQov0NaJrciEz2P0JyQevxG5Df+aTuerv9dC3eNj4yPV4gcbG2qI7hmrTt0+i3q3sCRDkYSatBhI8xeOIDv98lVcDEUZtHf+MPKyV7VrZO1JvWcGkYY6taCr3eq2XUpZBxfRcG8Hlc1IzMm185sUeOSW2h9k9CB2PnW2kRCfb0NTYvKrHq8tVjHnOPiWOYnKV+DWiCFs9KCrX9qpy1ZluXG0YnhbsjUSklDflJw6jqYl4Qn0ZQ8JNR68namhko2w9RQK/CCAXBgbkpi6kN87X1OSctWXAnZxVmFH6aFzaVBrOzIWCcnAsgX1nbObVF2pGV8ep26nWb1bkKWhiCRNWtDA+QtphJ0+VSxt19l3FbraUfTrz44RL6vvbNv5O6Cn+I8qHfr7ILv+f+jedhNaHLiK7/qzXvYAPH+IrLSryM4vg76VG9p42sHwJV7r4uDgqAs5im5fRmpWIQwcW6Gtk4n2B9g5OF6YEkS+44AxV/6Ds79wb3PmaDh/wxThKX7Zvhup9qPxbkA9EiAFInO4ePshoJc/OrfiEiAOjj8XHgzt26Jrj67w5hIgDg6OfwB/ozRBht+2jIaHiwt6ffMAAxbNbthzPBwcHBwcHBwcLPhb3Q57fvUg1oWnw7j9GLw9wE37y8s4ODg4OF5z5MhL+wkXCh3RpbOLeoEFB0f9+Vs+E8TBwcHBwcHB8arhnprh4ODg4ODgeC3hkiAODg4ODg6O15J/bBJUfOsEglfMxIThfREQ0B+jpi5B0Ik7Gm+sbTjSiyFYungrTjTkZWMvDSnSQpdh8bfJ0PLC2deLp/l4rP0Ncq8P0jSELluMb5Pvo8IcpFexb+UnWPTNEdyufAFsw9F2jn89UmSEB2LxhgSNNze/CkqQGb4IE/oHwL/PeKyrxzYXDefPGturpATZSd9h2fQxGNgrAL0GjMCkeWsRkfb4NbfRp8h/7YPiy+EfmASVIOP7t+Dt2QPv/+9nPBLbwdnRGI9ObsKMgLbotfx4ze0z6snz9INY81Uozjz+Kx+Xeo6rkevwVUgKHr3GT22VnP4CAW3eQujrngk+v4rIdV8hJOVRxR5H+dFf4sOV+3C3WTvYvYz16FrO8e9HihsxG/FV8Ilatqt4OciurseUd1bj2D0TNHNwgKXJn/ECgT9nbK+OYpz9oh+8e/8XQeeL0MjBGc3M5bi2bylGd+iAyWG3Krex+VdTTY8lp/FFQBu8Ffo6/Vh5dfzjkqDCnz7F6P+Eo2zQdzh37TyO7P0eQT+EI/HKJYS9Y45fPp+ET2K17VfD8U+k5OpJnM4peY0mZbbk4/Qveei0NBjrhltz97UbjD6GBueh9PyrfeFe2Y1M3JS5YfKWvfgh6EuMd/szkqA/Z2yvCvm9vQj88jTMp0bg8pkY7Pk+CEEhP+L0lWSs8LmH3fNWIa5YXflfTTU9llzFydM5KOGC4kuBv5xB/W8tKG7JfIaNJ3ho5d0MhurNhxW3i5ZvSoGgnRccJTJkhK/CxtRG8LW5i8jgHQg/fBo3iszg4toE+hUbFstRcD0JB/aEISL6KJLPZ6GwUTO4WhmwD+DybAS9NxW7n0/Azphl6NJIXa6A1xgt/Kxw80A8skx9Ma6HIxT2Ii+4jqQDexAWEY2jyeeRVdgIzVytYKB50qc3Ebf7B4RGHcf1Eks4F8djfVQx/Ge9i86miooN6bsU9y5EI2zvfkQeS0HmfT6sXezRWCMY1d23MqTvX4ODBV0xY7IfLJRl9e2H4jLqKmw4Z4gO5r8iLGgHfjyejkcSRzS3NVQdI72CvYGbccnYGQWxWxB8NBMl1m/A1UwEPM/FmYMhCAk/hKTU31Fi6gxXC9U2wM8vhyJwQywKnTvBXSkjFc/TmPKNJ6DXxhvNDBjly+7jUvRu7AyLQsL531BiVtlGBdI8XGTqhIQzdc5lo8zCBc7mYhSmBGFlUDRSbjyCrDQP+eKW6OBkpBAcricdwJ6wCEQfTcb5rEI0auYKqypK1YSFHQuvInzVRqQ28oXN3UgE7wjH4dM3UGTmAtcm+hq71r8CHZRTl6zK0rF/zUEUdJ2ByX4W4MkLcefabZTY+SCgpWonfgXSvIuI3h2C8KgEnMsug4WLMxhRMl+kIfSzjTjBawXvZobq8UhxMWQ5NqUI0M7LERJptXMoqtRb1gpkuH8pGrt3hiEq4Tx+KzGDs6sFE8pVSDPCsWpjKhr52uBuZDB2hB/G6RtFMHNxRZPKgKFBEX75PhBbUnhoraE/xS2Bn7cHYmuqBO297CHWpRuttu6K5/FfYX2CFB7tnWGkbFu3jqX3LiA6bC/2Rx5DSuZ98K1dYK/p3BXIcOvwOvzfzlicvJrPNP0QN+8aoLXoJFYzfsJrxfhJpUEiZPkmpAjawcdRwl5OtfgP84XS9qqOTeHWZ3AwhLGRQ0lI/b0Eps6uqHBJaQZLP6hbxwrYy0g7sswDWP2/M3CdsRZT2knUpQwiW7S2eIyLOTy84d8bLRurtcIm1mjA3g51j7V2HajR2be65gsNPb5xD3tXBSE65QYeyUqRly9Gzw5OyhZYzXUaSJlY/dnLssF/Mool8rWjfW+vol3DyUBUdX8bcbv+1NfejBy9u1F3r6ZkwNMnt+nRlKfcxqWELm0YQHYiA7Jt04169epGbWwlxBM60PjQHCrf6UUneUE00JBP9tOPMS3qpuTSBhpgJyID2zbUrVcv6tbGliQ8ITmMD6Uc9UnLrn1Po53EJDRxIp8u7am5uRl5tnEhYcX4GtL3Urq8vg9ZCU3IuYM/9fb3IQcjPjXyXkTJhaoauvtWXfYN6Yd635uW/tTd1pyad+1HfTo4kKHAgrp+dkK1z5dyPy4xuXq6k7WbL3Xz9qZpEY9Imn2AZrRtTHxDe/LqEUCd3c1JJLKngWvPkmIIsjv/o/7GIvL+7LLGPkRFFDvdgTnfJ3SGKZQ9TKKl3SxJaGBLLbv4U9dW1iQRO9LQTZeYnqmQ/RFNH3qbEN/Ajtp286eOLiYkkLjRpLBsenBsJY3ztSM+35Y6DJ9Aiw7cUgiONgywIxHTZptuvahXtzZkK+GR0GE8hZYrtQYs7Fi5r5KY2vXvS/ZmjuTdrTt5NTUgnr4bTY/OU8v3FemAQaesisJoTCMRdfoiU7UfkzSdAn1EZDp+v1qWMvoj+kPyNuGTgV1b6ubfkVxMBCRxm0Rh2cwR1Y9XUkS7hhuQqOvXpDT16nUaImvZQ0pa2o0shYyMWnYh/66tyFoiJsehm+iSWunK/cnE7ah/X3syc/Smbt29qKkBj/TdplO0KmBUQ0rXVnchfeN+tPWOxvcPQ2mUmZg6rspgarDQjVZb/0Oln4q9oXS3U3p5PfWxEpKJcwfy7+1PPg5GxG/kTYvKnbsKUrqxey6N6+FMYr45tR04liZ+dphu7dHcQ1FN0S4abiCq2H+JjZzq8h9pue1VjE1K2QdmUNvGfDK096IeAZ3J3VxEIvuBtPasuu9s/ICFjusno1p4Ek1TmvJJ7DyYloacoF+faOi+GmxiTXVY2SGLsdatAzZ90zVfaOjx/jFaOc6X7Ph8su0wnCYsOqBsgc1cV52q+3iqaYAN/tN5aUkQj29PY0N+ZUKIgkcU+74rCQwHUlAe8/HBLhppKiT3WfHMN2qenKC5nkLS77OFKva700HZLwvJUyAi//W3aplwNHlAu0aaktB9FsVXnpROzPUkoX4f2qI4qewuBQ83I2GzcbTrpmo3T+mdGJrZSp/0hOrxNaTvpcn0XxcRuc85zkhQReHpheRt4Ub/OfSU+cSib9Vl3yAZluvGhoZsUW/2SfmUstSXjMVetPQCExmVEwMzsbWcR6cVXVMgy6WdIyxIYDuM/pdR7ul5lPCxNxmKW9HCFEbLzOedw5kxtF1KimaUFEbTZDuxcqPNMiZVin3fiYR2I2hbennDT+js5z3I1KAjrUpTHPSEDk2xJ6FFX1p3WS2p0hu0dRATMJxmUSJzmvygASQW9aRNf6gG+GDXSDIVutOsSsExYphLnkJ96rMlV11SHbZJEI/49mMp5Fd1iv0olt53FZDhwCBSmPEr0wEbWelKgp4coin2QrLou44qRbmVBlkKyWlWIpU0IAlqiKwLY98nJ6EdjdiWThUjOfs59TA1YJKVNOVnZWDlMT9mxoZQpajfJ1eBIQ1UBoyayH7fSD0NDan35nLfl1Fe8HAyMehOa7OY3rLRjTZb15xgFKrQ2U4pJf/XhUTuc+h4pXPTQm8LcvvPoYoxV6f6xsysJ6A65aTLf6qOTZa7k0ZYCMh22P+o0q0T6GNvQxK3WkgKt2bjB7p13DAZ1YTRcdJKGuBkQHrQIz2RKTn79KOJH62m3afvMGcph02sqQkbO9Q9Vl06YNE3nfNFNRvND6IBYhH13PSH2hfYzCc1eTk2+M+nrmva9YJvNwjTRjtBdQHQFF39vWD4/B5y78uAxgOxJjkFUcv9mW9UyPWsYWcjgKwgHwUs723KpWUogx6EYv2qtxG00hgD1yQjJWo5/CtPCms7GwhkBchXnLQwAVGJhfB4awHGuoiUVfi2/bB4ZndIyq/0NaTvPBOYNiZkH/oGq3fEIe1eKYx8v8C5+9eweaDiPdgs+ladF5Ah3+0tfDrZAwbKTyboNGcW+kjSEBN5VVmieDSsaY8B8Cp/RXdBHA7GF6DFpMWY3EJ9yZbXBAGLPsYAg0z8eCBV+Xnwm/1gkn4Q+y6qVikUxIUj5pEXRo/1gKAkGfsic2DdvR88nqTh559/Zv7SIe3UE22RiqjoLKD0FCJj78Jm5FxMb6XqHUSumLItCSlHFqOjlm1TGg9cg+SUKCyvFBz0rO1gI5ChIP9FnwXjw27QNIx2Up/YtCv8GaE8v5cLhRm/Mh2wkZUOSk9FIvauDUbOnY5KUU7BtqQUHFncUe2X9aP+si5B8r5I5Fh3Rz+PJ0hTjuNnpEs7oWdbIDUqWl2PgW+HQdNGo1LU/oz9Pce93Puqgmrw7EfhTX8BTu0/iNuKp0HleYjalwhZ13EY04xfD91Us/Xq6GyHBxPTxqDsQ/hm9Q7Epd1DqZEvvjh3H9c2D3z5b7mvS0719J+CuIOIL2iBSYsno9KtA7Do4wEwyPwRB1LLV6zV5QdsdPyyZMRDkx6LEJP5K9PuFiyb1gfNytLw4/qFmOjngY7/icAthV++iP/UaYcsxqpLB8SibzrnC100YD6pD/X01X8aLy0J0jNvAguNZ/14IjEEegSZjFGAwATWxo8R//V7GNm3K7zc7WBq5oEFyaUAyZnQyg6+tTUs9eR4kJsL3YsDBTCxNsbj+K/x3si+6OrlDjtTM3gsSEYpCHLmpLK7t3CnmAd7Jyfl80MqeDBt7gLLcsk0pO+Clpi9YRX6C5Lw+eQ+aNO0CRzbD8WsdQm4pYwzuvtWgxeQocDlDbyhyvFUGDjC0RL44/YtdQEPZk0sKja8lN27jTvP+HB2c9eQC4ORK5rbAXdz7ig/mvQfj8GW13Bw33k8Rz5iw47gaccxGNOcD/njbGQ/LMPt0Pfg5+sL3/K/gCVIKpbjnqKN4hzkPADsXZwhVLaoQmDjAW93K3XCUBWBiTWMH8fj6/dGom9XL7jbmcLMYwFUYmBrSbWhB3MNOSjkIhILmN+gMijM+FXpgJWsdFCck4MHsIeLcxVJwsbDG+5W2iSpm3rLWv4Y2dkPUXY7FO/5aYzDNwBLkoohv5ejrsigZ44mVQMGxAI9kKyW9T48awwb3weSXyIQ8bsM8twfsS9ZDz3fHAEbha+y1k1VW6+BznYEaDl7A1b1FyDp88no06Ypmji2x9BZ65Cgcu6XS11yqpf/yHDv9h084zvDzb3qczlGrs1hh7vIuVMeVevwAxkbHb9kGYms0HbwdCzbtBcJF3Nw79ckrBtthavbZmJR5OMX85+65MvGnnXoQJ9N33TOF7powHxSH+rrq/8wdCdBenqMMcirrM4pLSlVTQqaMPVqe0xKfiuEydz7Y2HEHZj7DMK0JVsRc/kmtg2q/aE1bfCbdkJ7J8K106dwT5tiZb9hw0AXeL27A1lltxAy0Q/9F0bgjrkPk8kuwdaYy7i5bVDFA216BgaQMIla0dOnVScwZnzP1eNrWN+ZRKrLPERk5CL7bDS+WzEVfkbp2Dl3EIYEnsFzue6+VedFZEglz/BMc4BUiMIiwNCo8slyPR6vQn96Egn0mWSzhlxkT/GEOU5foj6nUS9MGGqHrMj9OHf3MMKPlcJv7Gg4Mv7CE+tDzBOi/coMSFW3XTX+pPhtcwAT3JjzMPH4WXFxFfuS52fhYlo28mtkunLcCpkIv/4LEXHHHD7Mr9UlW2Nw+eY26BQDSzvWU9SrhVelA1ay0oGI0YkAz1BcXEWSyM+6iLTsfOWPBpUIqkiAMXVZFZlU0gBZ88TQF/MgbL8SGdLq4yBIf9usrqiAiRe1i1or5oPGY2DjM4iIuInsg/twSr8f3hyieii8PrrRtPXqsGmHZ9oF8yIykJt9FtHfrcBUPyOk75yLQUMCwf71P4p4ySRVVQ0SpTUDa+1yqpf/6EHC2IievAhPn1YNnrKnT1DERB6JfuV0UKsfsNTxi8voOZLntYaZ41REV1sBZuDQHf/9dj56iR7iUurNF/SfOuTLZqw6dFDAZ9M3HfOFqsnaacB8ouIl2OC/AB1JEA/6+mLQ4wd4UJH0FePChUzmdwVb5MiL2YnoPE/MCYvGtlULMGPiYPg53UHGNUa9zMRU1SXrQNQJE8a2RFnyRvxfUs23AT3+6RtsibuNYovmsH0Yg53RefCcE4bobauwYMZEDPZzwp2Ma4xRMedkTsqz6oj2LoSL8Uc1XkJVggvJKer3ajSs7/L7sQicMAbL48pg6z0IUz5Zi93xUZjvJUPm2YvIz9Pdt6q8mAyll5KQ+KCyRvGZYzie1xjtu7RSl1SFZ+MDL0fC+dgY5Go0XJJ6BEk5Qnh4tVaX6MNvwgg4/R6LsM0R+In8MXa4jcqojL3g/QZwJSYSmRrBWJa1A+8PHo1lh+8zh7eDt6cerp9IRk6FQcmQvXMauvhOwx4m01VMWBXI8xCzMxp5nnMQFr0NqxbMwMTBfnC6kwGVGGqTwl9vx3XqgI2sdKDfzhueetdxIjmnckyybOyc1gW+0/bgHqMrfTHh8YMHld8XX8CFzFok0CBZG8NLNRBEVh0Idrw/GKOXHVYXNBDjPhg/uAlSo7dj6/5f0JhJigYoL/+/rBjDoh35fcQGTsCY5XEos/XGoCmfYO3ueETN94Is8ywusrwjy9NnJkd6jAeVBsmo4wJqU4dWWPhPJTzY+HjBkc4jNiZXQx4lSD2ShByhB7xaa16qrA0WOn4pMhLAo01z6N35Ed9+n8mk61UpupqJ36QSODrbvxT/0Q6LserSQXFbnX3TNV/UEJcer8rELa/3fKLipdjgvwAdSZAI7Tp5QZIVgk8/DUbsT7EIWTYeM8IfQqTjyEp4MLZ3gAVlISZoL05evoJz8SFYNuZtbLnBfF1aimfKxFOGXyNX49PF3+F0rU4igPecrzHTPRubRwVg4udhOJGRjT9+v4TYb2eg/7hv8avj2/hyni8kxvZwsCBkxQRh78nLuHIunun7GLytOilKFScV+WDGvIEQH56LIdPXI+LoYabOWEzYcFV9u41t36vCM7UGbsRg9cx3sWpPHE6eSsSBbwKxK10fHXr6wYJN36rQsH6UI3/wIz4cPhvfRh7FoR8+xcgJ3+KPdh/goyEm6hrVEHXGzI/7QHhkHoYq5JJ4HLEhSzF6wnpkuUzCvPEO6opM1Q4TMPqNa9i+7hh4vcZhqJXaMAStMXXeCJidXYFho5Zix6FExO9bi6mjZmP72TI4epgB/Dcw6aORMDm+FGNmbkZkUhKitnyICStPwWrcLIy14UFsbAyJPBOx3+3CkXQp7B0sQFkxCNp7EpevnEN8yDKMeXsLVGJ4pjp3Df5MO9ZOnTpgIysd8N+YhI9GmuD40jGYuTkSSUlR2PLhBKw8ZYVxs8bChgnWnbwkyAr5FJ8Gx+KnWKbv42cg/KFIexDgGTdA1gK0njoPI8zOYsWwUVi64xAS4/dh7dRRmL39LMocPdT1GooBekwcgaa/bMSGn5tgyPie6t3DX0w3lbBoR88U1owEYlbPxLur9iDu5CkkHvgGgbvSod+hJ/x0q0qJqF0neEmyEPLppwiO/Ynxr2UYPyMcD9kbJCv/0UTUeSY+7iPEkXlDMX19BBKPM36wdDQmrM+Cy6R5GO/A5twsdMxjISPZr4hc/SkWf3da1WwNeGgy5jMs78lH3Bw/dBwxG6s2/4Cdwf/DV/PHofuw9bjd+gMsHGP1UvxHOyzGqksH9m119k3XfFGj92JjGEvkyIz9DruOpDGuWt/5RMVLscF/A6SL0pu0f94A8rQyIKHEgtx7f0ghez4iD0nV1WGVyzBVVFkNIculuBXDqa2tEQmF+mTq1JFGLwmnhC97kKTxYNp+V/H0egklznIivsifNtS61FmF9M4xChzRisyEegrtKv/0+Mbk2m8BRWSVrxmQUW7cChre1paMhELSN3WijqOXUHjCl9RD0pgGb7+rrveYUrfPot4tLMlQJKEmLQbS/IUjyE5fPT5Wfa9JadZBWjTcmxxMxCQQSsjctTO9GXiEbilExqpv1VY0NagfKt0IW0+hwA8CyIXpi8TUhfze+ZqSylcMKFfMiMgnMF1j1ZCCJ3QpeDYNaGVLxiIRGVq6U49Jqykup/pKCymlr+pAIp4VTTxQvuC7nCLK2DufhnnZk4lYQEIja/LsPZOCUjXrFVF66Fwa1NqOOY+QDCxbUN85uyldvUxC9iCW5ne2IQmfTzZTYhgxxNGK4W3J1khIQn1Tcuo4mpaEJ9CXPSTUePB21UHa0GXHylUxIvJadkljyf8zOviWOYm8l5NyUc+r0oESHbLStTpMQVE6hc4dRK3tjEkkNCDLFn1pzu7yFWkKEeyneQM8ycpASBILd+r9YQjt+ciDJLWsDmuorIsy9tL8YV5kr7R9I7L27E0zg1IrXgegXHEi8qJlVQMGvWUuUq4srJOyM/RJSyEJ3D6ik5XLg9jpRqutV4tfbNopzaKDi4aTt4MJiQWMLM1dqfObgXRE5dxaqb46jGmEbu6fRwM8rciAiQ8W7r3pw5A99JGHpOrKHJ1yqst/tMTmJ5coePYAamXL2IjIkCzde9Ck1XFU4dZs/IBBl451yqgkkWY58Unkv0H1uTae3aDIle9Sr9YOZCoREp85VxOXjjT8o+/olwf18B8tsLVDnWPVEcPY9K3u+aK6jT6g2PmdyUbCJ77NFEUBy7muOi/LBv/Z6Cn+o8yG/oE8f5iFtKvZyC/Th5VbG3jaVXv53GtPCSLfccCYK//B2V9e1VtjZbj+f93RdlMLHLj6Hfq/9OUx/3T+DB1wcHBwcDSEf3TOIDJ3gbdfAHr5d0YrLgH6a3j6C7bvToX96HcRwCVAHBwcHBz/ILi8gaNhyH7DltEecHHphW8eDMCi2b4NehcNBwcHBwfHX8U/+nYYhy7kyEv7CRcKHdGls4v6IdKXxXNcPbgO4enGaD/mbQxw4y4DaedV6oCDg4OD40XgkiAODg4ODg6O1xLudhgHBwcHBwfHawmXBHFwcHBwcHC8lnBJEAcHBwcHB8dryQsmQVJkhAdi8YYEjW0ndPEU+Y813h/+t0eKiyFLsXjrCeSzHuNfy9P8xyw2mK0n0osIWboYW0/U3K7kr+HV2ZH0YgiWLt6KE/8Uhb+2/PN8UyfSNIQuW4xvk+9rbG3xD+Lv0H9pBsIDF2NDwl0WfdA+h72SGKrgaT7+UdPfa8ALJ0E3Yjbiq+AT6r22dFByGl8EtMFbof8kB3+O9INr8FXoGTz+2z9CXoLTXwSgzVuhuP+yBfw8HQfXfIXQM4/VBX8hr9iOnqcfxJqvQnHm76/w15x/km+y5PlVRK77CiEpj2rZ2PZvzt+h/9IbiNn4FYJP5LFKgqrOYa8uhpac/gIBbd5C6EsPzhwvwgsmQfoYGpyH0vMs34RbchUnT+eghJtbXhEluHryNHL+7QLm7IiDg6M29IciOK8U55e3hu5pqfoc9upiaMnVkzidU/LPTG7/xfCXM6j/XQtS3LsQjbC9+xF5LAWZ9/mwdrFHY6XBKC4lrsL6BCk82jvDSI8puXcB0WF7sT/yGFIy74Nv7QJ7ReXCFAStDEJ0yg08kpUiL1+Mnh2clGeA7D4uRe/GzrAoJJz/DSVmznC10Fd9pz7Hposm6Gh1Gwd/+AH7jqUiV+yIFk2NUXbrBPZsD0ZEQhryG7nC3VqC8l3/5QXXkXRgD8IionE0+TyyChuhmasVDHSkfk9vxmH3D6GIOn4dJZbOKI5fj6hif8x6tzNMlcfKcP9SNHbvDENUwnn8VmIGZ1cLxp20UYRfvg/ElhQeWns3g2F55/AUP28PxNZUCdp72StfNCi7fwnRu3ciLCoB538rgZmzKyrFkIHwVRuR2sgXNncjEbwjHIdP30CRmQtcm+gzYy5EStBKBEWn4MYjGUrz8iFu6QMnRikNk8NT3IzbjR9Co3D8egksnYsRvz4Kxf6zMKmzcutuhvrIoZIXGqdWO7LHlb2B2HzJGM4FsdgSfBSZJdZ4w9UMInkBricdwJ6wCEQfTcb5rEI0auYKK83BP72JuN0/IDTqOK6XWMK5OB7ro4rhP+tddFYpnIUM6/KTmkgzwrFqYyoa+drgbmQwdoQfxukbRTBzcUUT/QojYXiO3DMHERISjkNJqfi9xLRuGeu0E6ZKWig+23gCvFbeaFZukIrbncs3IUXQDj6OElX/Nl2ESUcr3D74A37YdwypuWI4tmgK47JbOLFnO4IjEpCW3wiu7taQaHS5bv1ewd7Azbhk7IyC2C0IPpqJEus34GomYmWnun1TjoLrSTiwJwwR0UeRfD4LhY2awdXKoPIXn/QeLkSHYe/+SBxLycR9vjVc7BvXMmGq4s+Gc4boYP4rwoJ24Mfj6XgkcURz22pvqX+eizMHQxASfghJqb+jxLRqHKvVRtU1lJSlY/+agyjoOgOT/SzU7dfTBtQUZSUg9IfdiEzORJGFC0RnvsWaRBnaeTlCeEW3Daiop483qP/18R0W8bR1ISJXrUeC1APtnY0Ym2c7hzVB2vaGxFBVGxtTG8HX5i4ig3cg/PBp3Cgyg4trEyjcuTAlCCuDopFy4xFkpXnIF7dEByfFW8N0y7fWOVUbLPy/nOe5Z3AwJAThh5KQ+nsJTDX99HVC8Z6g2imly+v7kJXQhJw7+FNvfx9yMOJTI+9FlFyo+L7qxm6ll9dTHyshmTh3IP/e/uTjYET8Rt60SFE5/xitHOdLdnw+2XYYThMWHVCeQfYwiZZ2syShgS217OJPXVtZk0TsSEM3XWJaV6A6h0G7PhTQtAk19/WnLm6mJBA60ril86ibnQ15dOlO3vaGxDNoS5+cUh1VcmkDDbATkYFtG+rWqxd1a2NLEp6QHMaHUu37s5bRte9Hk5OYGYOTD3Vp35zMzTypjYuQROWbTMoeUtLSbmQpNCDbll3Iv2srspaIyXHoJrpUsZOlJlK6troL6Rv3o613NE78MJRGmYmp46oMpoaMHiYtpW6WQqa/LamLf1dqZS0hseNQ2lTeqHJjQzG169+X7M0cybtbd/JqakA8fTeaHp3HtJBPx1aOI187PvFtO9DwCYvowC1Zw+RQdo2+H+1EYkbvTj5dqH1zczLzbEMuQlHFxnr1l4OClzBOrXb0jPaPNyWxqye5W7uRbzdv8p4WQY9KLtGGAXYkYmyrTbde1KtbG7KV8EjoMJ5C1YMvu/Y9jXYSk9DEiXy6tKfm5mbk2caFhKLyDYLZ2JIuP6mJcmNCcTvq39eezBy9qVt3L2pqwCN9t+kUnadWjDSbDsxoS435hmTv1YMCOruTuUhE9gPX0tla2tVtJ0RFYWOokagTfaHcmVdN0S4ablCpX2X/DNpRn4Cm1KS5L/l3cSNTgZAcxy2led3syMajC3X3tidDngG1/eSU8hh2+lVsYiomV093snbzpW7e3jQt4hELGbPwTSqhSxsGkJ2Isck23ahXr27UxlZCPKEDjQ/NUY6dCVK0vo8Vo29n6uDfm/x9HMiI34i8FyWTdpGqY1xLf+pua07Nu/ajPh0cyFBgQV0/O1GxiaY0+wDNaNuY+Ib25NUjgDq7m5NIZE8D155Vt1uLjSq/06DGRrkNsAFGVjd3jidXiYgsWwbQgJ5tydbck/x97UhfLSs2NtAgH693/+vrOyziaZVNYOszhzU0hqraELfrT33tzcjRuxt192pKBjx9cpseTQp3zj+2ksYx8ufzbanD8Am06MAtVvKtc07VBgv/V8gw+8AMatuYT4b2XtQjoDO5m4tIZD+Q1tZuVP9a6k6CSpPpvy4icp9znMo3xC08vZC8LdzoP4eeMp80DaiUkv/rQiL3OXS8sjIt9LYgt/8cIkVtyg+iAWIR9dz0h1oZhRT7vhMJ7UbQtnRlDYYndPbzHmRq0JFWpSl2rlWdg8dvSmN2/a7a2bgwnma6CEhP3JbmJj1QtiXL20tjGWNxmpnIfHpAu0aaktB9FsVXRJkndGKuJwn1+9CWKrt3VyK7G0zDzYTUbNwuuqncoVpKd2JmUit9PRKqg0dh7PvkJLSjEdvSVWNieHL2c+phasA4YJq6pCqy3zdST0ND6r35lnrcMsoLHk4mBt1pbZayUXrfSUh2I7ZRpRjO0uc9TMmg4ypSiUFh3Dzi24+lkF9LVHUeMce5CshwYBDlKQvyKWiAmEQ9N9EfyhM1RA4yusv0zUzYjMbtusmEEAbpHYqZ2Yr09YQVAbIhcnhp46xhR6oJhidsSfNOlzfMjH7XSDIVutOsysHTkxNzyVOoT3225CoUTsHDzUjYbBztUimcGWoMzWylT3rC8iSIhQx1+klNlEkGj0/2Y0Oocpjvk6vAkAYGKUYpo9ydI8hCYEvD/pfBjFABYzcJH5O3oZhaLUxRltSAhfxYJ0FM/5qO2UW/q5yO4me6kEBPTG3nJpFyA29ZHu0dyyQUTjMVFVjqV5EEMYloy3lUqSrdMmbjm4zCaaSpkNxnxVcmF09O0FxPIen32UIqVf2XXETuNKcySNHphd5k4fYf0q6q8vhjQ0O2lO/In08pS33JWOxFSy8wg5Ll0s4RFiSwHUb/y1DPXoxsEj72JkNxK1qYotCDdhutQZUkomE2ILvHyMFCSM7v7KdbSt0xPh37X2qtISs2NtAgH69v/xvgOzrjqWYSVK85TPFtQ2JouY3Y09iQX5lUXMEjZm5zJYHhQFK6M0N+0AASi3rSJlXDLOTLYk6tDgv/l+XupBEWArId9j+qNNcE+tjbkMStFpLSXF8jqlzNrQHPBKaNCdmHvsHqHXFIu1cKI98vcO7+NWweWH2bBB5MTBuDsg/hm9U7EJd2D6VGvvji3H1c2zwQWjdVKEnGvsgcWHfvB48nafj555+Zv3RIO/VEW6QiKjpLXZFp3bo/Jo1yVF2yNvJCWzc+BK1HYnJXc+UlV55ZW7Rx0kP+w4fMp8YYuCYZKVHL4V9+50auB2s7GwhkBcgv0H5XtjAhComFHnhrwVi4KK9R82HbbzFmdi+/xVaC5H2RyLHujn4eT5Cm7O/PSJd2Qs+2QGpUtLJWdXj2o/CmvwCn9h/EbcUzcfI8RO1LhKzrOIxpxmfEsA+ROdbo3s8DT9JUbf6cLkUnVaOIzpKpGmL6YzdoGkY7qXfpMu0Kfy9DPL+Xi/vlVarQEDkUIiEqEYUeb2HBWBfVpXq+LfotnonuFfc8GiaHVzdOFbymPTCAqVdO44FrkJwSheWVg4eetR1sBDIU5BcoFI6oxEJ4vLUAY1UKZ4baD4tndte4vcNChvXyEw34dhg0bTQqh+kPL8PnuJd7n/lUgLiD8ShoMQmLJ7dQXx7noUnAInw8wACZPx5QlminYfKrAc8a/SeNgqPK6eDV1g18QWuMnNwV5iqnQ9s2TtDLV/hcffTLQ9MeA5ixqj+ykLFu32RoPBBrklMQtdwflc1Yw85GAFlBPlSqMkVjysahb1ZjR1wa7pUawfeLc7h/bTPqVJXbW/h0sgcMlJ9M0GnOLPSRpCEm8iqjqjgcjC9Ai0mLMbmF+n4CrwkCFn2MAQaZ+PFAqqqMobqN1k3DbKAo8UckFLTA+A+Gwl6pOx6sen+KDwIMqtwOqZuG+XhVWPS/Ab6jK55WoaG+WQH7GMq3G4Rpo53Ueyiaoqu/Fwyf30OuVqdjI98GzKlK6vb/griDiGfsY9Liyag01wAs+ngADDJ/xIHU56rC14S6kyBBS8zesAr9BUn4fHIftGnaBI7th2LWugTcqiEnAVrO3oBV/QVI+nwy+rRpiiaO7TF01jok1KysRP44G9kPy3A79D34+frCt/wvYAmSiuW4l3NHXRPQs7CGdYV988Bn/q1nbAKTCq8WQKD4XrkLiAAm1sZ4HP813hvZF1293GFnagaPBckoBUGu9eF8Ge7euoNinj2cnDTut/JM0dzFUiUo+WNkZz9E2e1QvOen0V/fACxJKob8Xo7ykBowk8mw8X0g+SUCEb/LIM/9EfuS9dDzzRGw4cnxODsbD8tuI/Q9P402fRGwJAnF8nvIuVO+plIP5k0sGBMvhweRWAA9kkGmLZ9piBxkd3HrTjETaJxQVQzN4WKpNpcGyeFVjlMFz6wJLCoPgsDEGsaP4/H1eyPRt6sX3O1MYeaxAMmljJkwg5fdvYU7xTzYOzmpkmslPJg2d0H5UFnJsF5+ooGeOZpodpgngligB5IxkUp2D7fvPAPf2Q3uGnpQJCOuze2Au7XYmpKGya8GehawrnQ68FROB5NKp4NA5XTMX330y4NZlf7pkjEL31QgMIG18WPEf/0eRvbtCi93O5iaeWCBSuHKlUKClrOxYVV/CJI+x+Q+bdC0iSPaD52FdQm3UJeqBC5v4A3Nh3cMHOFoCfxx+xajqtu484wPZzd3DTtiMHKFSlWVcay6jdZJg2xAhvs5uSji2cKhWVVZublaa8hcBw2NdZqw6X9DfKfOeKquU05DfbMC9jFUz7yqbnkiMQR6BJk2p2Ml3/rPqSrq8n8Z7t2+g2d8Z7hVVQpjrs1hh7safvp6UN1kqsFMCF3mISIjF9lno/HdiqnwM0rHzrmDMCTwTI2gwTPtgnkRGcjNPovo71Zgqp8R0nfOxaAhgTijRWc8sT7EPCHar8yAVHVrTuNPit82B6hrMmrl83R1thL5LYRM9EP/hRG4Y+7D/Npegq0xl3Fz26AqD5xVRQ8GBsyvSirC06dVs4OS0ufKMM90GPpiHoTtVyJDWr2/BOlvm5X1tWE+aDwGNj6DiIibyD64D6f0++HNIYoAzoNYXwyesD1WZkhrtEnS37A5QJ3RM+jpsf8t1yA56BnAQMJMxEVPUVUMJSh9rnbmBsnhFY6zHD1GmhWHyXErZCL8+i9ExB1z+DC/jJZsjcHlm9swSD14PQMDSJggVfT0qXKCrKCkFOVDZSfD+vlJJXrMONX/rI6eBBJ9Pchr6EGGp0+KAP3yB1e1U7f8mPMyI5ZrxuZSRr/Vg7UeHzzWTldP/TINV6pKl4xZ+CaD/FYIJvr1x8KIOzD3YX6VL9mKmMs3sa1c4QqYZKDLvAhk5GbjbPR3WDHVD0bpOzF30BAEagtSaqjkGZ5pnpoKUciowdCoEaMqCfT15DXtSPYUKlVpnL+KjeqgQTbAh1EjI/AZWRUWVukwnjF2XalhHTbwArGuAlb9b5jv1B5Pq9NQ31RTnxjK+Bxb1bKVb33n1HJq9389SBh71JPX9CXZ0ycoYkYl0Wft9P8K6hyt/H4sAieMwfK4Mth6D8KUT9Zid3wU5nvJkHn2IgrU9ZTI7yM2cALGLI9Dma03Bk35BGt3xyNqvhdkmWdxUVFZEQBUtVUYe8H7DeBKTCQyNZJPWdYOvD94NJYdVtwWqD/yvBjsjM6D55wwRG9bhQUzJmKwnxPuZFxjjJ5x/Kq6V8ODVcf2cKGLiD+q8ZKtkgtITil/34QxvFQdRmTVDmPH+4MxetlhdYEWjPtg/OAmSI3ejq37f0FjxokHqC+vGnt54w1cQUxkJipblSFrx/sYPHoZDrN+r4RelUmrQXLgWaFjexfQxXgc1Xh7WMmFZKRUvAyqYXJ4aeOsbkfakOchZmc08jznICx6G1YtmIGJg/3gdCcD15jgIWcGz7PqiPYuhIvxRzVelFaCC8kpFe+9YiPDevkJW3g28PFyBJ2PRUyuhlxKUnEkKQdCDy91Qf3h6TM/PugxHjyovExffOECMrVdta8HDdWvbhmz8U058mJ2IjrPE3PCorFt1QLMmDgYfk53kKFSuKIl3I8NxIQxyxFXZgvvQVPwydrdiI+aDy9ZJs4qg5R2pJeSkPigsv/FZ47heF5jtO/SilGVD7wcCedjY1BVVUeQlCOEh1drdUk9aaANmHXsBA9cxrHY25WyKr2IpNP3GG2o0G0DLxDrymHR/wb7Th3xVJP6t/8SYmgtKBL/SljIl82cWm94sPHxgiOdR2xMbqV9MHEv9UgScoQe8Gqtecnz30+dcwnP1Bq4EYPVM9/Fqj1xOHkqEQe+CcSudH106OkHM3U9JcwvLGvcQMzqmXh31R7EnTyFxAPfIHBXOvQ79ISforLYGMYSOTJjv8OuI2mAoDWmzhsBs7MrMGzUUuw4lIj4fWsxddRsbD9bBkePKmdgDc/YHg4WhKyYIOw9eRlXzsUjZNkYvL3lBvNtKUqfVfvFq0bkMwPzBopxeO4QTF8fgaOHQ7Bs7ARsuFpupAK0njoPI8zOYsWwUVi64xAS4/dh7dRRmL39LMocPdT1tGGAHhNHoOkvG7Hh5yYYMr4nFAskFQhaT8W8EWY4u2IYRi3dgUOJ8di3dipGzd6Os2WO8DDTOeWrEcPYWAJ5Ziy+23UE6VK7BshBBJ8Z8zBQfBhzh0zH+oijOByyDGMnbECFGBooh5c2zup2pA2eMewdLEBZMQjaexKXr5xDPDOOMW9vYayUGX3pM4XCMWPeQIgPz8WQ6esRcfQwI5+xmLDhasUkzsaW6uUnrBGh88yP0Ud4BPOGKvSQiOOxIVg6egLWZ7lg0rzx6nr1R9SuE7wkWQj59FMEx/6EWEYu42eE46GIrZ1pp6H6ZSNj3b7Jg7G9AywoCzFBe3Hy8hWci2fqjHkbqmZK8Yx4UKlqNWa+uwp74k7iVOIBfBO4C+n6HdBTGaS0I3/wIz4cPhvfRh7FoR8+xcgJ3+KPdh/goyEmjEA7Y+bHfSA8Mg9DFXaUeJyR6VKMnrAeWS6TMG+8g7qV+tIwGxC0mo6FY02QuHAopqzZj9jDu/HZOEZWGZWTrW4beJFYV47u/jfcd2qPp5rUv/2XEUO1IzY2hkSeidjvduFIWqFu+bKZUxuAqPNMfNxHiCPzhip9KfF4LEKWjsaE9VlwmTQP4x1eLA784yAdlGYdpEXDvcnBREwCoYTMXTvTm4FH6JZyUUG1J+tLs+jgouHk7WBCYoGQJOau1PnNQDqiqkwke0Cx8zuTjYRPfJspqjIqooy982mYlz2ZiAUkNLImz94zKSi1fPFp9af3FTym7weJSRSwkSpWSUpv0v91EZHJ2HDmg4xy41bQ8La2ZCQUkr6pE3UcvYTCE76kHpLGNHj7XdUx2nicSttn9aYWloYkkjShFgPn08IRlUtLFRRl7KX5w7zIXikTI7L27E0zg1IrlsvWStkZ+qSlkARuH9FJ1WKkSooyaO/8YeRlr5KdkbUn9Z4ZRJVi0FjxoC5SyObgW+Yk8l5Ol9WrQB7EzqfONhLi821oSkxRg+XwOHU7zerdgiwNRSRp0oIGzl9II+z0K1aOKGiQHF7GOGvYkWrljcgnkNLVOlIgy42jFcPbkq2RkIT6puTUcTQtCU+gL3tIqPHg7epajyl1+yzq3cKSDEUSatJiIM1fOILs9MtXh7Gzpbr9pCbK1VciL1pWadRM4UF6y1xE3ssvqwuInlwKptkDWpGtsYhEhpbk3mMSrY7L0ZBNNVjZSSnd3D+PBnhakQHTVwv33vRhyB76yENSoV9t/Xv8/SASiwJoY6XT0c3/60Iik7Hqzww69atYHSYin8B05uhyWPqrLt+U5VLciuHU1taIhEJ9MnXqSKOXhFPClz1I0ngwbb+r6HcpZR1cRMO9HVTxRmJOrp3fpMAjtzT6o4kq/ghbT6HADwLIhdGvxNSF/N75mpKqrK58QpeCZ9OAVrZkLBKRoaU79Zi0muJyyuWn3UZrUH2JOUO9bUDBs6u0d25/8rCUkMjIjtq//TUt6MP8uyKO6bYBBfX28Qb0v76+U0Ft8bSaD9RrDmtQDNU2RzGlB98ic5E3LVc5HRO2Yml+ZxuS8PlkMyVGWaZTvrrm1Oqw8n+GJ5coePYAamVrTCKRIVm696BJq+OowlxfI/QU/1HnQxwcHBwcVShB5DsOGHPlPzj7C8s34/8tKcbuEU0w+cEKZCbNhRPrJ6Q5OP7dvGbXvTg4ODg4ODg4VHBJEAcHBwcHB8drCXc7jIODg6NW5MhL+wkXCh3RpbOL1odv/xnIkXshAZefN0f3js1qf0UGB8drBpcEcXBwcHBwcLyWcLfDODg4ODg4OF5LuCSIg4ODg4OD47WES4I4ODg4ODg4XkteQhIkRVroMiz+Nhmsd3fQiRQZ4YFYvCFBYzuDupHfS8SmRZ9gRehlFKvLXiXStFAsW/wtkrUO+lXI5E9AehEhSxdj64l8dcGrQ3oxBEsXb8WJ/H+SgF5vnuY/1tgO49UhvxOLbxYtxo6zJeoSjhej/vFUxVPkP/4zNP6qkOJiyFIs3noCLzvM1Dt+Sa9g72eLsSmpfJuXl0VDdVuNarFfmhGOwMUbkPBCjTYAaRpCly3Gt8n3X7KcauclJEHPcTVyHb4KScGjl/aItRQ3Yjbiq+ATFXs41Q2TdGyZh3lbz8C4tTsM1KWvkudXI7HuqxCkaB30q5DJn8DzdBxc8xVCzzxWF7w6nqcfxJqvQnHmMfdc/t+fEpz+IgBt3gr9U5J6+R/H8f1XX2PfZS4JejnUN54ylJzGFwFt8FbonzcZvXyeI/3gGnwVegYvO8zUO35JryF6/VcIPvVAYxPbl0EDdKuNarFfeiMGG78KxokXarQBPL+KyHVfISTl0UuWU+38TW+H6WNocB5Kz7N8Q6s0HT9dbYKpW37A7JaVO1VzcHC8DEpw9eRp5JRwCes/k3rGUwUlV3HydA44lf/daYBuWaA/NBh5peex/J/7inTW8JczqP9dO7L7uBS9GzvDopBw/jeUmDnD1aL8TRNlSN+/BgcLumLGZD9YKNMqGe5fisbunWGISjiP30rM4OxqUe3dFEX4NXEvduz+EUlXHqNxs0ZI2/5/iMx3h6+rATLCV2F9ghQe7Z1hJLuCvYGbccnYGQWxWxB8NBMl1m/A1UwEecF1JB1MQjavMfgPbuLXwkZo5moFA2U/FJcKV2FjaiP42txFZPAOhB8+jRtFZnBxbQJ9PWVHaqHuMZSl78eagwXoOmMy/FSD1qCaTORpCP1sI07wWsG7mSFUp1Vcql2OTSkCtPNyhETdl6JfE7F3x278mHQFjxs3Q6O07fi/yHy4d3RFI2UdOQquJ+HAnjBERB9F8vksFDZqBlcrA2VGK72yF4GbL8HYuQCxW4JxNLME1m+4ghGVFp7iZtxu/BAahePXS2DpXIz49VEo9p+FSZ3VWzI/z8WZgyEICT+EpNTfUWKqqft6yPfpTcTt/gGhUcdxvcQSzsXxWB9VDP9Z76KzqUp+svuXEL17J8KiEnD+txKYObui4lRakeLehWiE7d2PyGMpyLzPh7WLPRpr+m2dtluNol/wfeAWpPBaa+iJ4enP2B64FamS9vCyZ5JseQGuJx3AnrAIRB9NxvmsQjRq5gorldEpLyWv2piKRr42uBsZjB3hh3H6RhHMXFzRpE6jq1u32nlRGejSYSFSglYiKDoFNx7JUJqXD3FLHzgZMeOoUw5SXNkbiM2XjOFcEIstwUeRWWKNN1zNoGuPavkfCfjf9yloPOhjTPCqwwB06KEG0gyEr9qAc4YdYP5rGIJ2/Ijj6Y8gcWwOW0PNY+r2/Vp9jHcPF6LDsHd/JI6lZOI+3xou9o2hqYrnuWdwMCQE4YeSkPp7CUw1bVzZv41IbeQLm7uRCN4RjsOnb6DIzAWuTfQr7bG+41bruDye6l/VYZ+FKQhaGYTolBt4JCtFXr4YPTs4KVuq00cVt3xqidO6/VC3HStj/YE9CIuIxtHk88iqEutVPL0Zh90/hCLq+HWUWDqjOH49oor9MevdzlCFmYb4GAOL+FXnGKVXEbHmAB76TkV/QTy2/xCBpPSHMHBwg61R1TPXLw5W1a2RjKUN6Yj9yhi2PgFSj/ZwVvi6AmkeLjLjCwlnxncuG2UWLnA2r7zoUKd+6rINTcrSsX/NQRR0nYHJfhZKnbDR+wuheE9QXcgeJtHSbpYkNLClll38qWsra5KIHWnopkv0TFmjiMLGNCJRpy8oU7Gnm+whJS3tRpZCA7Jt2YX8u7Yia4mYHIduokuqA4ikWbTrLTeSCBqRo3cX6uBmQY2cOlP7piJq+ckZpkK1DemUmy6KydXTnazdfKmbtzdNi3hEJZc20AA7ERnYtqFuvXpRtza2JOEJyWF8KOUo9zZUtSNu15/62psx5+pG3b2akgFPn9ymR1Oe5v6HmrAYQ1HYGGok6kRfKAddnWoy0bKpoKLOruEGGhsaSilr11vkJhFQI0dv6tLBjSwaOVHn9k1J1PITOqPc2K6ELm0YQHYipl9tulGvXt2oja2EeEIHGh+aQ4rhPNs/nkzFruTpbk1uvt3I23saMaKqSdk1+n60E4mFJuTk04XaNzcnM8825CIUVWygKM0+QDPaNia+oT159Qigzu7mJBLZ08C1Z6lQWYOdfMuufU+jncQkNHEiny7tqbm5GXm2cSGhqHKT0odJS6mbpZDRZUvq4t+VWllLSOw4lDZVGE11Suny+j5kxfTfuYM/9fb3IQcjPjXyXkTJqs6xsN1qSK/R6i76ZNxva+XGvAwPQ0eRmbgjrcpg+lpyiTYMsCMR02abbr2oV7c2ZCvhkdBhPIWqjE61+ai4HfXva09mjC67dfeipgY80nebTtG1Gp1u3dbkZchAlw7z6djKceRrxye+bQcaPmERHbjF9EanHFQbhopdPcnd2o18u3mT97QI0maK1Sk78wm1FIppQFC+ukQLLPRQA/Xmki39u5OteXPq2q8PdXAwJIFFV/rshHrLSha+r9XH7l6m9X2sGBt3pg7+vcnfx4GM+I3Ie1Gy2leklH1gBrVtzCdDey/qEdCZ3M1FJLIfSGvPqpWl7J+Y2vXvS/ZmjuTdrTt5NTUgnr4bTY/OU9lAQ8at1nF5PNVpn/nHaOU4X7Lj88m2w3CasOgA0wYLH60lTuu2Qd12rDvWl9G170eTk1hIJk4+1KV9czI386Q2LkKNGNsQH2MTv1j4mVI2ArJr3YasG9tR286d6A1G18ImPWjl6SfKNljJuAbV50oWNsQi9lffQFn2RzR96G1CfAOm7938qaOLCQkkbjQpLFs5p+nUTy22UYNqc6Vuvb84OpKgQop934mEdiNoW/pTddkTOvt5DzI1YCaFNIWAqk74hbHvk5PQjkZsS6eKI85+Tj1MDajjqjTmk4zuhowkC6EjjQ2+xpglgzSXYj/0IgM9YR1JEOPoLefR6fJG6QHtGmlKQvdZFF8hyyd0Yq4nCfX70BblDs+qdnh8exob8qvqXEwYjn3flQSGAykoT1lQA91jUOjq5SZBsrshNNJCSI5jg+maSiiUG/sheRnoMeNWJ0EPdtFIUyG5z4qvnEyenKC5nkLS77OFFENWBmjGSFrOO13R95owOggeTmbCZjRu100mBDFI71DMzFakz+hA6QiyXNo5woIEtsPofxlqB5TlUcLH3mQobkULUxSdZCFf2V0KHm5GwmbjaNdN1VbP0jsxNLOVPukJ1UGkMJbedxKS3YhtVGlmZ+nzHqZk0HEVKc2sOqXJ9F8XEbnPOc5IUkXh6YXkbeFG/zmkaISN7VZHRr9v7EmGhr1ps2KiVxblMf03IYPuaymL6eqDXSPJVOhOsyqNjlHBXPIU6lOfLbnKz8oAwuOT/dgQ+lUlFHrE2JSrwJAG1mZ0LHRbg5ciAzY+kk9BA8Qk6rmJ/lD3Q7ccVEkQT9iS5lU6LSvYJEFs9FAD5QTBI77NENqSrpZYfgot9TUmsddSusCIg43va/Ox0uT/kovIneYcr9AEnV7oTRZu/yGFKmS5O2mEhYBsh/2PKt0pgT72NiRxq4Wkcid1/+zHUkil4dD7rgIyHBhEClU0aNzV4ikr+8wPogFiEfXc9Idq4mTjo1rjNAsb1GnHumO97G4wDTcTUrNxu0gVZqR0J2YmtdJn4md5EtQQH2MTv9iMUS0bvvUAWn9RldnJ7sXTXEb/+j4rVPNcQ+JgNd3qtiEWsZ+hahL0hA5NsSehRV9ad1mtodIbtHUQk/Q5zaLEEhZzsVbb0EKVuZLNHP/i1H1BqSQZ+yJzYN29HzyepOHnn39m/tIh7dQTbZGKqOgsdcVySpC8LxI51t3Rz+MJ0pT1f0a6tBN6tgVSo6KZOgU4euAYClpPwZLxblBeTONbo+/Sj9CvseJDbfDQtMcAeBmqP6IxBq5JRkrUcvir79xArgdrOxsIZAXIL6i8mc23G4Rpo51U54Ipuvp7wfD5PeTelylLqsJmDC+fgqMHcKygNaYsGQ83lVBg3XcpPtIUSuOBWJOcgqjl/swoVMj1rGFnI4CsIB8VQ+Y1RY8BzBjVH2tSiISoRBR6vIUFY11Utyf4tui3eCa6l9+XK4jDwfgCtJi0GJNbqK/F8pogYNHHGGCQiR8PpKrKGOqUb2ECohIL4fHWAox1UV365Nv2w+KZ3StuAZYk70NkjjW69/PAkzSVvH9Ol6KTSuCIztKiJ54JTBsTsg99g9U74pB2rxRGvl/g3P1r2DyQGXm9bVcBD/aj3oS/4BT2H7ytfCBUnheFfYkydB03Bs34ChWsQXJKFJZXGh30rO1gI5ChIL9AXcbAt8OgaaPhpL5abNrVn7Hd57iXe19VUB22utXkJcqgfj7CXg68pj0woNJpXxqs9VADPtze+hSTPdTLJ0w6Yc6sPpCkxSDy6lP2vl/Nx3gmpmhM2Tj0zWrsiEvDvVIj+H5xDvevbYZCFQVxBxFf0AKTFk9GpTsFYNHHA2CQ+SMOpD5XFTL9sxs0DaMrDQf+jPye38uFQhUNH3c16mmf7H20WpxmY4O67JhFrC9MiEJioQfeWjAWqjDDh22/xZjZXVJ5C6ghPsYifrH3M8b23l6C99uoNl/hWfbEJ7N6QngpGtHXZfWQsS7qsiEWsb86pacQGXsXNiPnYnortd+IXDFlWxJSjixGRzHbubj6HK4L9nP8i1BnEiR/nI3sh2W4Hfoe/Hx94Vv+F7AEScVy3Mu5o66pRv4Y2dkPUXY7FO/5adT3DcCSpGLI7+UA0hz8dqsEIkcXOGneLDd0RXPburrDg1kTC0a95QhgYm2Mx/Ff472RfdHVyx12pmbwWJCMUhDkGg+165k3gUXlgeCJxBDoEWQyLUJkM4aXjhQ5v91CicgRLlWFAtfmtpVKEpjA2vgx4r9+DyP7doWXux1MzTywILkUILly0lbCM0MTzQFXR3YXt+4Ug2fvVEUHPNPmcLFUnU127zbuPOPD2c29yjMNMGL0ZAfc1dB9XfKV3b2FO8VMcuHkpNEOD6bNXaA6lRyPs7PxsOw2Qt/z05C3LwKWJKFYfg85d7Qs0xW0xOwNq9BfkITPJ/dBm6ZN4Nh+KGatS8AtZj6pt+2q4VkPw/g+EvwSEYHfZXLk/rgPyXo98eYIG6UeBCbWMH4cj6/fG4m+Xb3gbmcKM48FUKmgitFV1QFPBLFADySrJZCx1a0mL1EG9fIRBrZy4JlVbfdlwVoPNRDA5Y03qjyXZODoCEv8gdu/P2Dv+9V8TNByNjas6g9B0ueY3KcNmjZxRPuhs7Au4RaeQ4Z7t+/gGd8Zbu5VvIlxp+aww10NG9eDeZU4x4NILIAeyaBQRcPHXY162Wd9fLRqnGZlgzrsWKGzumO9DHdv3UExzx5OVQMamrtY1j9+aqA7ftXHz/ho1ty9iu0ZOzVjbO8ubt953rA4qJU6bEiqO/bXoDgHOQ8AexdnCNVFCgQ2HvB2t4KBTv2oD6hmG7phP8e/CLWMWgVPrA8xT4j2KzMgVd060/iT4rfNAeqaanhi6It5ELZfiQxp9foE6W+bGf0YwEDCTPvFRXimPkwJPUPRs7ozOz0eT+PhwFsImeiH/gsjcMfch/lVswRbYy7j5rZB1R7AZtDT03ggTAdsxtAAmC4wStMcXylKSmXqZYB6MFAJhZGBskAN4RlTUH6U/FYIJvr1x8KIOzD3YX65L9mKmMs3sW1Q9RHrgcerY8RKHTABr+gpnlYxpBKUPlf3SCKBvp4cRU+fVg0Osqd4UgToSzTOWYd89QwMmF9MVLOdklKoTsWDWF8MnrA9VmZIa8ibpL9hc4D6F00VmEDUZR4iMnKRfTYa362YCj+jdOycOwhDAs9AWl/brcAcg8YPROMzEYi4mY2D+05Bv9+bGKIMEHLcCpkIv/4LEXHHHD7Mr60lW2Nw+eY21FABIxGFztnCXreavEQZ1MdH6iMHPR7qMsWGUR89VIdQ8uxZFVukwkIUMT84jEwYm2ft+9V8jJlwu8yLQEZuNs5Gf4cVU/1glL4TcwcNQeCZMkgYf9GTF+FpVYdj3OkJc259SPQrQ7FerYbzIuOuTn3ss34+qhmn2c0hddvxc52xXhU/9aimfEtKnzcgflaiO36xHaOCmrYnf1qEYsb2GhnxGxgHtVOrDbGI/TUQMX7BJEzPiosrZKlAnp+Fi2nZyH/Ofi6uMofroj5z/AtQZxIEYy94vwFciYlEpkYSKsvagfcHj8ayw9UvnRrDS3UAIqsegB3vD8boZYeZZNgendo3g/xiEhIfqr9neJ6RiFM5tShBC/K8GOyMzoPnnDBEb1uFBTMmYrCfE+5kXGN+eTFZfVVfqAcsxlBfePpMcCU8fvCA+U2opvgCLmSWf+LDvlN7NJNfRFJVoSDxVI7a8OTIi9mJ6DxPzAmLxrZVCzBj4mD4Od1BxjXFz/5arhZog2eFju1dQBfjcVTjZVglF5KRon4vBM/GB16OhPOxMcjVaLgk9QiScoTw8GqtLqkbnlVHtHchXIw/qvEyrxJcSE6peK+FsZc33sAVxERmolLiMmTteB+DRy/DYS0vp5Hfj0XghDFYHlcGW+9BmPLJWuyOj8J8Lxkyz15EQb1ttxLjPuMxuEkqordvxf5fGjNJ0QDV5XN5HmJ2RiPPcw7Cordh1YIZmDjYD053MqBSQc1+sqNhun2VMqiKYsJX/1PBK5MDS17o/FJcSkrEg4oqxThz7DjyGrdHl1bmDfR9Oe7HBmLCmOWIK7OF96Ap+GTtbsRHzYeXLBNnLxbCxscLjnQesTG5GrosQeqRJOQIPeDVWvP6QC38mXJXJK/qfypoiI8qYWGDuuw4X2es58GqY3u40EXEH71bKd+SC0hOKX85YcN8jE38Yj9PSnHlxE8atleEn4+dwAMTb3RsKWq4jOsDi9hfA/128PbUw/UTycipmMBkyN45DV18p2F3evQrmYtf3RxflbqTIEFrTJ03AmZnV2DYqKXYcSgR8fvWYuqo2dh+tgyOHmbqiuUI0HrqPIwwO4sVw0Zh6Y5DSIzfh7VTR2H29rMoc/Rg6ojQeeYc9Czbjw+Gz8aWyDgc3vUZxo1dg0sKzbP8ecIztoeDBSErJgh7T17GlXPxCFk2Bm9vucF8W4pSHVeVaofNGOqJqB06eUmQFfIpPg2OxU+xIVg2fgbCH4oqFCDqPBNzepZh/wfDMXtLJOIO78Jn48ZijUooimkIxvYOsKAsxATtxcnLV3AunmlnzNtQDbkU7Icsgs+MeRgoPoy5Q6ZjfcRRHA5ZhrETNuBqufeJOmPmx30gPDIPQ6evR0TiccSGLMXoCeuR5TIJ88Y7qCvqQOSDGfMGQnx4LoYo2jl6mNHTWEzYcLXC0QWtp2LeCDOcXTEMo5buwKHEeOxbOxWjZm/H2TJHeJjVNFOeqTVwIwarZ76LVXvicPJUIg58E4hd6fro0NMPZvW2XQ0MemDiiKb4ZeMG/NxkCMb3VN3DZ4wO9g4WoKwYBO09ictXziGekduYt7dApYIql/HqQcN0+0plUAUxjI0lkGfG4rtdR5BWYNhwOch+ReTqT7H4u9PqgtqQ417qQezZs6fK3959J19QD3I8+PFDDJ/9LSKPHsIPn47EhG//QLsPPsIQk4b6Pg8qVazGzHdXYU/cSZxKPIBvAnchXb8DevqZKf374z5CHJk3FNPXRyDxeCxClo7GhPVZcJk0D+Md6g7FSl6Z/WlBbAxjiRyZsd9h15G0BvmoEhY2qMuOLVjEepHPDMwbKMbhuUOU8j16mPGfsROwoSKgNTB+sohf7OdJ5ofwoQUYt+B7HE6MwQ+fjMDErXfhM3sOBhk3LA7WHxaxvzr8NzDpo5EwOb4UY2ZuRmRSEqK2fIgJK0/BatwsvOnq+Erm4lc3x1eDdFJEGXvn0zAvezIRC0hoZE2evWdSUKp6SSnzfZWVUIqSjL00f5gX2ZuISSA0ImvP3jQzKJXKjyCSUd6JtfSWbzOmTREZ2fnQhP9bSsPNhdR26UXm++pPvCueLBeRT2A6qU/BIKPcuBU0vK0tGQmFpG/qRB1HL6HwhC+ph6QxDd5+l6lTrR01zw6+ReYib1p+Wevj9kp0jaFeq8MYSm/up3kDPMnKQEgSC3fq/WEI7fnIgyQVyzcVq0VO0Nq3fKkZc06RkR35TPg/WjrcnIRtl9JFRVdluRS3Yji1tTUioVCfTJ060ugl4ZTwZQ+SNB5M2+/KVCtXRD4UmK6tX1V5nLqdZvVuQZaGIpI0aUED5y+kEXb6FSsEFE/iXwqeTQNa2ZKxSESGlu7UY9Jqissplxtb+T6m1O2zqHcLSzIUSahJi4E0f+EIstOvXGLKCJz2zh9GXvYmJBYIycjak3rPDKIKM9NCadZBWjTcmxyUOpKQuWtnejPwCN2qGLou260d1QolAbl9dFK1gkKNLDeOVgxvS7ZGQhLqm5JTx9G0JDyBvuwhocaDtyvrVF9equTZQXrLXETeyy+rC6rBQrfaeHEZsNGhjB7EzqfONhLi821oSswzFnJQrQ4T+QRSFVMsSaRZTnwS+W9QF9REJXvlBdAaf3r6w5R12OihBsqVM0JqPSWQPghwYeQhIVMXP3rn66QqK4N0+b52HyulrIOLaLi3g0rOEnNy7fwmBR65VRmznlyi4NkDqJWtMYlEhmTp3oMmrY6jSndS9E9EXssuUaUqntHBt8xJ5L2cFKpo0Lir6ZiVfcoeUOz8zmQj4RPfZoqqTJePao3TCnT7Yd12zCbWMzxOpe2zelMLS0MSSZpQi4HzaeEIO9Ivj7EN9DFW8UvXGJWy0ac+S7fTbH+F7YmpsUNHmvh1Mt3TPG2942D1uVK3DSnQFftr2kgRpYfOpUGt7Zi5QEgGli2o75zdpFpkyUI/tdpGNaqsDmOp9xdET/EfJrj8icjx+Ld0/CFqBnc748qHpPJ/wJCm7+Ppl78i8QM7deHrg/zxb0j/Q4Rm7nYwrhQKfhjSFO8//RK/xn8Au5fxQ4CD43WlJBLvOIzBlf+cxS/LW2s86MrBwfG68hdMq4S7e6aincdIbPm1/PpbCa58vwsnytzQqaOVuuz1gu7uwdR2Hhi55deKy6wlV77HrhNlcOvUEVZcAsTBwcHBwfFS+QumVj7c3vkYE61P4SMfD/j26oMAHzf4fnIR7nO/wVyf1/P3Gd/tHXw80RqnPvKBh28v9AnwgZvvJ7joPhffzPXhfrVycHBwcHC8ZP6C22FqnmYh8WA0Tt14AKmBHdr0GoEhPlav+WT/FFmJBxF96gYeSA1g16YXRgzxgRWXAXFwvDjyPKT9dAGFjl3Q2UX9sDsHB8drzV+XBHFwcHBwcHBw/IVwT5pwcHBwcHBwvJZwSRAHBwcHBwfHawmXBHFwcHBwcHC8lvw5SZA0DaHLFuPb5PuoeNO19Cr2rfwEi745gtu17ClZL7Sd4zVEmhGOwMUbkKDxSnSOPxf5/Z/w7aJP8NmuiyhSl9VGSWY4Fk3ojwD/Phi/7oy69NVSl43IHx3H1sWfYPnO83iqLnuZSC+GYOnirTiR/zrYpxQZ4YFYvCFBY8sF3TzNf6x+TUbDjv83UCmDfwJPkf/41fT29fKXv4Y/Jwl6fhWR675CSMoj5WtfFeRHf4kPV+7D3WbtYMd+W9na0XKO1xHpjRhs/CoYJ2rbB4bjFSNF+v/m4+MtP8OwdQsYqku1IruK9VPewepj92DSzAEOlibqL14ttduIFFe3zsdHm09Bv5UnXsX6qefpB7Hmq1Ccefw6eKkUN2I24qvgE5X7TNVJCU5/EYA2b4VCtU1UfY//N1BdBn9zSk7ji4A2eCv01fz4fr385a/hL7odlo/Tv+Sh09JgrBtuzd2Te4noDw1GXul5LG/Nrav/S5BeRXKGKSZt3oE5rXXs+lx2A5k3ZXCbvAV7fwjCl+Pd1F+8Wmq1EWkmkq40wtsbd2Beu5e5T/Prij6GBueh9PxysHPHElw9eRo5JeUTXn2P/zdQXQZ/c0qu4uTpHPxTustRE/5yBvW/taC4HLsKG84ZooP5rwgL2oEfj6fjkcQRzW0NqyYvsvu4FL0bO8OikHD+N5SYOcPVQh1Iy9Kxf81BFHSdgcl+FuDJC3Hn2m2U2PkgoKVlRTvSvIuI3h2C8KgEnMsug4WLM8wV84jiVtdnG3GC1wrezQzVW/FLcTFkOTalCNDOyxESabVzMDXkBdeRdGAPwiKicTT5PLIKG6GZqxUM6sy6ipCVEIofdkciObOI6YMIZ75dg0RZO/g4SpiuhOKzjSfAa+WNZobqzV6lFxGyfBNSBKo6KmS4fykau3eGISrhPH4rMYOzqwUT1uqmKCsBoT/sRmRyJoosXCA68y3WJMpUY5TploPwajhWrU+A1KM9nI3U/atLN9Ir2Bu4GZeMnVEQuwXBRzNRYv0GXM1EdR9XnaJf8H3gFqTwWmv0jeHpz9geuBWpkvbwslcos265SK/sReDmSzB2LkDslmAczSyB9RuuUHRHN3IUXE/CgT1hiIg+iuTzWShs1AyuVgZ1J9pFWUgI/QG7I5ORWWQBF9EZfLsmEbJ2XnCUyJAW+hk2nuChlXczVKo8BMs3pUCgrKMh55g4ZEobQ7/0EZ7XIS/ZrcNY9387EXvyKvOTQI6HN+/CoLUIJ1frsHNZBsJXbURqI1/Y3I1E8I5wHD59A0VmLnBtol8pd+a4vIuMnEPCGTmfQ3YZMy5ncyjdKUOLjTzPxZnIo7gmM4WhtAClppo2wvacWnh6E3G7f0Bo1HFcL7GEc3E81kcVw3/Wu+hsqtaKTjuT4t6FaITt3Y/IYynIvM+HtYs9GmsmBjrbaKBtyAtwPekA9oRFIPpoMs5nFaJRM1dYVQSRuvqmip/rE6TwaO8Mpail93AhOgx790fiWEom7vOt4WLfGAIUIiVoJYKiU3DjkQylefkQt2yLZ4c/rzxeVoevVvAcl0MDsSG2EM6d3FEuYkV5GlO+8YQe2jB2bKBNadI8XGRkGBLOyPBcNsqY+OOsCsCsfaDOmKvTjrTJwAdOjOB0x3IWNqIF2f1LzJyzE2HMnHP+txKYObui0uwZP9mYika+NrgbGYwd4Ydx+kYRzFxc0USfGW9hCoJWBiE65QYeyUqRly9GT6+iWnXEaj5i4S8626nVxji0onhPUO2oN2dr6U/dbc2pedd+1KeDAxkKLKjrZycqNhSUPUyipd0sSWhgSy27+FPXVtYkETvS0E2XmBYYqmyKxiBNp0AfEZmO36/6nmT0R/SH5G3CJwO7ttTNvyO5mAhI4jaJwrKZI6ofr6SIdg03IFH55njV6pRc2kAD7ERkYNuGuvXqRd3a2JKEJySH8aGUU9s+eWU3aed4V5KILKllwADq2daWzD39yVdjYzmtG6cW7aLhBqLKjUdlDylpaTeyFBqQbcsu5N+1FVlLxOQ4dBNdUg1YC2V0c+d4cpWIyLJlAA3o2ZZszT3J31djA0AWcqi+8Z1O3Sg3thOTq6c7Wbv5Ujdvb5oW8Uj3cdWRXqPVXfTJuN9WuqMh34eho8hM3JFWZTCdYyEX5eaUYlfydLcmN99u5O09jZjusKCELm0YQHYipu023ahXr27UxlZCPKEDjQ/NYSxMO2U3d9J4VwmJLFtSwICe1Jaxc09/X43NEWtuhqugaNdwMhBVbqBYX3lJb+ymueN6kLOYT+ZtB9LYiZ/R4Vt7dNu5coNEMbXr35fszRzJu1t38mpqQDx9N5oenacap+wPiv7Qm0z4BmTXthv5d3QhE4GE3CaFkcKdqtuINPsAzWjbmPiG9uTVI4A6u5uTSGRPA9eepUJFBTbn1ELZte9ptJOYhCZO5NOlPTU3NyPPNi4krJfcSuny+j5kJTQh5w7+1NvfhxyM+NTIexElKzvHpo2G2QYTRGjDADsSMe226daLenVrQ7YSHgkdxlOoMojo6lu1zS1LL9P6PlaMPJypg39v8vdxICN+I/JelMzIOZ+OrRzHxBo+8W070PAJi+jAraJqm2Nq99WqyOjO//qTscibPtPcILoolqY7iKjlJ2c0NtasRPZHNH3obUJ8Aztq282fOrqYkEDiRpPCshlbZOcDOmOuTjvSJgMZi1iu20ZqIqOHSUupm6WQabcldfHvSq2sJSR2HEqb1MFI6SfidtS/rz2ZOXpTt+5e1NSAR/pu0yk6jzlx/jFaOY6JFXw+2XYYThMWHahVR2zmIzb+orOdOm2MQxuskiAe34aGbElnXEFBPqUs9SVjsRctvaBwp0KKfd+JhHYjaFv6U2UNxe7jZz/vQaYGzOSXxtTRlQQ9OURT7IVk0XcdXVadhEpvbKVBjIE6zUqkknonQQ9o10hTErrPoviKGPGETsz1JKF+H9qiuWV0BTK6t2skWQid6Z39t1SBQnaXYv/bmvT1hPVKggpj3ycnoR2N2JZOFRI5+zn1MDWgjqvS1CVVkd3bRSMthOT8zn66pTo53Y39L7XW1yNhg5MgFrpROi0T2FvOo9PlVdgcVwMZ/b6xJxka9qbNTOBSFeVR8HATMui+lrKYvrGRizIJYpy65bzTFXVY8YCRn6mQ3GfFU6XKT9BcTyHp99lSZZfwCmT3GDuxIKHzO7RfJXRG5bH039b6pCesTxLUEHkxPKvcuVtZg42dKycSHvHtx1LIryWqKo9i6X1XARkODKI85uOTQ1PIXmhBfdddVvtsKd3YOohJPp1oVmJJVRuR5dLOERYksB1G/8tQp2uM3hI+9iZDcStamMKcg8U5a8D4TvBwMxI2G0e7bqr24ZfeiaGZrTRly0Jupcn0XxcRuc85rh4Lc9TpheRt4Ub/OaQ4hkUbDbENhgdMPDAVutOsyiDCHDaXPIX61GdLLou+VU2CSpP/Sy4id5pzvKI2nV7oTRZu/yFldSa2Bg0Qk6jnJvpD2afqO4Rr89WayPJ20nBmvG2XXqhIeAqjJ5Od2JuWayZGFTyhQ1PsSWjRl9ZVBmDaOohJLJ1mUWIJGx9gEXNZ2VF1GbBoV6cetFDInNdJSHYjtlGl2Zylz3uYkkHHVaQMjQo/4fHJfmwIVXb3fXIVGNLAILXV5wfRALGIem76g4mADFp1xGIMrPxFdzu6bYyjOpoX4mqF7/YWPp3sAQPlJxN0mjMLfSRpiIm8CpQkY19kDqy794PHkzT8/PPPzF86pJ16oi1SERWdpTyqLkpPRSL2rg1Gzp2OVqqTQOQ6BduSUnBkcUflJfz60RgD1yQjJWo5/E3VRXI9WNvZQCArQH6Bthu4RUj8MQEFLcbjg6H2qkuHPCv0/vQDBGi9dlwbJUjeF4kc6+7o5/EEaUp5/Ix0aSf0bAukRkWr61WlKPFHJBS0wPgPhsJedXJY9f4UHwQY1H27oS5Y64aHpj0GwKv8Kd4G6ZQH+1Fvwl9wCvsP3lY+JCjPi8K+RBm6jhuDZvx6yIXXFD0GeNX9UHF1Gg/EmuQURC33R6XKrWFnI4CsIB/aVZ6IHxMK0GL8BxiqEjqj8t749IMA7bcLauMl+ED94MNu0DQwvxpVH027wp9R3vN7ubgvK8WpyFjctRmJudNbqX1WBNcp25CUcgSLO1bzpoI4HIxnZDBpMSa3UN8H4DVBwKKPMcAgEz8eSFWV1XlOVVEVChMQlVgIj7cWYKyL6nYN37YfFs/sjvK7h6zkxjOBaWNC9qFvsHpHHNLulcLI9wucu38NmwcyFsKmjYbYBkPjgWuQnBKF5ZVBBHrWdrARyFCQX6C7b9XgmZiiMWXj0DersSMuDfdKjeD7xTncv7YZWqrXQjVf1QKvyWC82c8E6Qf34aJy0VIB4sJj8MhrNMZ6aLkpUnoKkbF3YTNyLqZXBmBM2ZaElCOLUd1ktMM25tbTjti0W089KChJ3ofIHGt07+eBJ2mqWPRzuhSdVMEI0VnqzvDtMGjaaFR215+R/XPcy72vKtBKdR2xGAMbf2HRzsuxsdcLVkmQwOUNvKF529nAEY6WwB+3b0H+OBvZD8twO/Q9+Pn6wrf8L2AJkorluJdzR31Q7RTn5OAB7OHiLFSXKBDAxsMb7lZqp6wXAphYG+Nx/Nd4b2RfdPVyh52pGTwWJKMUBLm2x/hl95GTWwSerQOaacQJnqkbXK3rsXxN/hjZ2Q9RdjsU7/lpyMM3AEuSiiG/l6OuqIkM93NyUcSzhUPVk8PN1ZoJGw2DvW54MGtiUXGehuqUZz0M4/tI8EtEBH6XyZH74z4k6/XEmyNswKuPXHhmaGJRz1ELTGBt/BjxX7+HkX27wsvdDqZmHliQXAqQXJmUVUd2Pwe5RTzYOjTTuF/Og6mbK+qn8hf3gfqhB3MNfSn6LBILoEcyyKgYOTkPAHsXVHUnG3h4u6O6O8nu3cadZ3w4u7lXfWbAyBXN7YC7FX2v65zqIg1kd2/hTjGTGDs5VZVtcxdYqqMOK7kJWmL2hlXoL0jC55P7oE3TJnBsPxSz1iXg1nO2bdTfNhQITKxh/DgeX783En27esHdzhRmHgugOow5SkffqiNoORsbVvWHIOlzTO7TBk2bOKL90FlYl3ALWqrXQlVf1Y4J+o8fDMtrB7HvPNNyfizCjjxFxzFj0FzbgcU5UJmMM6qajAe83a3UibQu2Mbc+tkRq3brqQfGavA4OxsPy24j9D2/Spth/gKWJKFYfg85d9RL3vXMq8YinghigR5IVtd7XarrSPcY2PgLm3Zejo29XrBKgqjkGZ5VGDEDFaKwCDA0agSeWB9inhDtV2ZAqrq9pvEnxW+bA9QH1Y5Ios+o9xmKizW9QI78rItIy86Hwhz1mGxYLtf8vhQlpTJG9VqQ30LIRD/0XxiBO+Y+TCa/BFtjLuPmtkG1P5jMN0IjIz6oiBlblbE+Y86jeRY95n9M4KzSlRKUlnswTwx9MQ/C9iuRIa0uD4L0t82qelXgw6iREfhUhMKqJ8ezEoV5V1IfOdRHN3o8HjMuFQ3XqTkGjR+IxmciEHEzGwf3nYJ+vzcxROHF9ZKLHni8ip8/rJDfCsFEv/5YGHEH5j6DMG3JVsRcvoltg2rVOKPyRjDiE4oKC6tMhPSM0WdNoVeRcSmjl0qVv7gPlMNWv3qKiloRQaLPhNFnxajqTvnIupiG7Pyq7zPRk0igrydH0dOnVZMB2VM8YXxcn/HNcmo/Z030DAyYX7CMbKu3y8jteb3kxkwEXeYhIiMX2Wej8d2KqfAzSsfOuYMwJPAMpCzaaIhtMALDrZCJ8Ou/EBF3zOEzaBqWbI3B5ZvbUHlY3X2rMekwP2q6zItARm42zkZ/hxVT/WCUvhNzBw1B4Bn2U5Smr9aGUa8JGGqXhcj953D3cDiOlfph7GhH7cmTiLEBpckUV7EzeX4WLqZlQ2kyOnygPjG3PnbErt166oGpL9YXgydsj5UZ0mo2w/xJf8PmgPLLX0y8r0d3y6miIxZjYOMvrGTxkmzsdYJVEiS9lITEB5WqKT5zDMfzGqN9l1aAsRe83wCuxEQiUyO+yrJ24P3Bo7HscF2XDVXot/OGp951nEjOQUV+LcvGzmld4DttD+4xKtYXEx4/eFD5ffEFXMjUno3L82KwMzoPnnPCEL1tFRbMmIjBfk64k3GNcQgmgaliZeWYoWMnD+DyMcTerqxQejEJp+9VnoenzwRdeowHDyrLii9cQGVXjOGlEggiqwoEO94fjNHLDqsLqmLWsRM8cBnHYlW3kpSUXkTS6XuVY+bVTw4N1s0L6NS4z3gMbpKK6O1bsf+XxkxSNEB9C6JhcmGHHHkxOxGd54k5YdHYtmoBZkwcDD+nO8i4xjg+o3DtKu8IlcpjUanyUlxMOo1KlfOgzwRMevwAlSovxoULmZU6eAk+oKS++tWKPtp5e0Lv+gkk51QeJ8veiWldfDFtzz11iQqejQ+8HAnnY2OQqyGkktQjSMoRwsOrtbqkfvCsOqK9C+Fi/FGNF/2V4EJySuU7b1jITX4/FoETxmB5XBlsvQdhyidrsTs+CvO9ZMg8exEFOtu41zDbkOchZmc08jznICx6G1YtmIGJg/3gdCcDqsOY43T1Td2UCjnuxwZiwpjliCuzhfegKfhk7W7ER82HlywTZy8qaiuSf1XtF0bfDxNGOOH32DBsjvgJ5D8Ww21qaVy/Hbw99XD9RDIqTUaG7J3T0MV3GhQmo8sHGhZztVFVBmzarZ8eVBh7eeMNXEFMZKbyR7YKGbJ2vI/Bo5fhMNuXFOnxdE6ibMbAxl90t8PGxjiqw8rl5A9+xIfDZ+PbyKM49MOnGDnhW/zR7gN8NMQEELTG1HkjYHZ2BYaNWoodhxIRv28tpo6aje1ny+DoYaZupXb4b0zCRyNNcHzpGMzcHImkpChs+XACVp6ywrhZY2HDOGknLwmyQj7Fp8Gx+Ck2BMvGz0D4Q5HWAfCM7eFgQciKCcLek5dx5Vw8QpaNwdtbbjDflqL0mebvmXIEaDV9IcaaJGLh0ClYsz8Wh3d/hnETNoD5sVCBqF0neEmyEPLppwiO/QmxIcswfkY4HorKeyJA66nzMMLsLFYMG4WlOw4hMX4f1k4dhdnbz6LMkZl1tSBoNR0Lx5ogceFQTFmzH7GHd+OzcROwoerJ6yWHBuvmRXRq0AMTRzTFLxs34OcmQzC+Z/kr9xomFxUyXDvwOT5d/D3OFKuLqsCDsb0DLCgLMUF7cfLyFZyLZ2Qz5m2oVF4K7SpvhekLx8IkcSGGTlmD/bGHsfuzcZiwIUMjMIrQrpMXJFkh+PTTYMT+FMvY0njMCH+ISpW/uA8oqa9+tcLHG5M+wkiT41g6ZiY2RyYhKWoLPpywEqesxmHWWBt1PTWizpj5cR8Ij8zD0OnrEZF4nLHppRg9YT2yXCZh3ngHdcV6IvLBjHkDIT48F0MU7R49zMhtLCPbq5WyZSE3nqk1cCMGq2e+i1V74nDyVCIOfBOIXen66NDTD2Y627BomG3wjGHvYAHKikHQ3pO4fOUc4hlfH/P2FqgOe6a7b6qW1PCgqr4aM99dhT1xJ3Eq8QC+CdyFdP0O6OmnqC2GsbEE8sxYfLfrCNJe6C3BInSYMBpvXNuOdcd46DVuKKxqMyL+G5j00UiYHF+KMTM3IzIpCVFbPsSEladgNW4WxtowibUOH2hYzNVGVRmkS+10tls/PagQtJ6KeSPMcHbFMIxaugOHEuOxb+1UjJq9HWfLHOFhxtLjxMYwlsiRGfsddh1JUxdWhZVsWPiL7nb0WNgYRw2oTlSrE4Stp1DgBwHkYiImiakL+b3zNSVVWVJRRBl759MwL3syEQtIaGRNnr1nUlCqehG9rtVhCorSKXTuIGptZ0wioQFZtuhLc3aXr0gjKr25n+YN8CQrAyFJLNyp94chtOcjD5JoXTklo9y4FTS8rS0ZCYWkb+pEHUcvofCEL6mHpDEN3n5X1agWnl3dS3P7e5ClRERGdu3p7a8XUB/m3xXL36mUbu6fRwM8rchAKCEL9970Ycge+shDolGH6U7GXpo/zIvsGZkJhEZk7dmbZgalVrxWQCvPrtLeuf3Jw1JCIiM7av/217SgD/Pv8jEy6JJD9eXPOnWjXM0gIp/AdI0VSQp0HFcHZWc+oZZCAbl9dJKRVlV0yUW5OkzkQ4Hpmr0pocNT7Ygv7kfbHqiLqiPLpbgVw6mtrREJhfpk6tSRRi8Jp4Qve5Ck8WDaflfTXjV5Rlf3zqX+HpYkERmRXfu36esFfZh/l6/IYCi9SfvnDSBPKwMSSizIvfeHFLLnI/KQaNRpiLyqrw5j0GnnyhU2IvJadkljqfMzOviWOYm8l1P54p+i9FCaO6g12RmLSGhgSS36zqHd6SpvqmkjT+hS8Gwa0MqWjEUiMrR0px6TVlNcjvp7luesyWNK3T6LerewJEORhJq0GEjzF47QeP2AAt1yK806SIuGe5OD0mYkZO7amd4MPEK3KkxERxsNtA1ZbhytGN6WbI2EJNQ3JaeOo2lJeAJ92UNCjQdvV9apu2/VVncx3pB1cBEN93ZQ9VNiTq6d36TAI7fUviejB7HzqbONhPh8G5oSk69ldZg2X60FJs6u6iAintVEOqDTbYsoPXQuDWptx9iAkAwsW1DfObtJbTIsfIBFzGVlR9VlUMQqluu2ES0UZdDe+cPIy96ExAIhGVl7Uu+ZQVQRGmv4CYOGzyqRPaDY+Z3JRsInvs2UWnTEdj7S5S9s2tFlYxzV0VP8R50PaaEEke84YMyV/+DsL6/TW0s1KN6NEU0m48GKTByf66Qu/LMoxu4RTTD5wQpkJs2Fk9Yb+q8Jz3/GAr91aJu0F2++4lUOxbtHoMnkB1iRmYS5r7XQOf7RyK7j/7q3xaYWB3D1u/71W23JwfGawP4qOwfHX4YMv+3fhNMtRsC//IXcHBwcdfL0l+3YnWqP0e8GcAkQB0ctcEkQxz8APux6fYWI7WNgzVksB0edyH7bgtEeLnDp9Q0eDFiE2b6sXvTDwfFaouN2mBx5aT/hQqEjunR2eSW7Sv/tkefiQsJlPG/eHR2bVV/s+aqRI/dCAi4/b47uHZtpLAnleJXIcy8g4fJzNO/eEX+6yjk4XpTnV3FwXTjSjdtjzNsD4MZdBuLgqBUdSRAHBwcHBwcHx78T7uYCBwcHBwcHx2sJlwRxcHBwcHBwvJZwSRAHBwcHBwfHa8m/JwmSZiA8cDE2JNxFxXtWn+bjscYLl18G8jux+GbRYuw4W6Iu+RMpyUT4ognoH+CPPuPX4c/ZCkaKjPBALN6QoPE69783T/Mfq9+y+s/re02kuBiyFIu3noDiBcLSjHAELt6AhPoMSMMPGnS8glfgS38e/wY70ILsN0R/9Sk+Xf0jbv4ZupGmIXTZYnybfL8yxuqkqv2qkOLqvpX4ZNE3OHK7PlvC6EB6ESFLF2PriXx1QQNo0Bg5tKNN938//kVJ0A3EbPwKwSfylMZbcvoLBLR5C6Fs94BhifyP4/j+q6+x7/KfnQTJcHX9FLyz+hjumTSDg4MlTP6U9/hJcSNmI74KPlG559PflhKc/iIAbd4KhUrt/6S+18ZzpB9cg69Cz+AxKcw8Bhu/CsYJlgOq7gf1PV7Bq/KlP49/gx3UpPj4Wny0aCeu2bSF05/xItvnVxG57iuEpDzSumGzdqrar5L8aHz54Ursu9sM7exeYhB7no6Da75C6JnH6oIG0KAxcmhHi+7/hvx7kiD9oQjOK8X55a2hiAclV0/idE7Jv8iQy3Aj8yZkbpOxZe8PCPpyPNz+lCRIH0OD81B6/p/wxvASXD15Gjkl5Vr/J/WdHfpDg5FXeh7LWQ6ouh/U93gF/3xf+vfZgeJt8udOZKPF/O3YOrGZ9t3h/6bkn/4FeZ2WInjdcO69Xxx/OfzlDOp/a0FxGXkVNqY2gq/NXUQG70D44dO4UWQGF9cm0NdTV1Mgu49L0buxMywKCed/Q4mZM1wtqr5kRZp3EdG7QxAelYBz2WWwcHGGucZ7vGT3LzHf70QY8/3530pg5uyKKk1I7+FCdBj27o/EsZRM3Odbw8W+sTLpUd4OW7UeCVIPvHFvL1YFRSPlxiPISvOQL26JDk6KtxzJUXA9CQf2hCEi+iiSz2ehsFEzuFoZsM4G5X8k4H/fp6DxoI8xwauOl8jIC3A96QD2hEUg+mgyzmcVolEzV1gZVJ5Jeu8CosP2Yn/kMaRk3gff2gX2jbVEadktHF73f9gZexJX85mmH97EXYPWEJ1cjY0neGjl3QyGal1IL4Zg+aYUCNp5wVEiY68/aR4uMvoLCWf0dy4bZRYucFYqR2UD6xOk8GjvDCPlMc+Re+YgQkLCcSgpFb+XmMLZ1aLiPUaKWy6rNqaika8N7kYGY0f4YZy+UQQzF1c00TypTpuR4t6FaITt3Y/IYynIvM+HtYs9tIkIKERK0EoERafgxiMZSvPyIW7ZFs8Of16t73XbGeu+Q4b7l6Kxe2cYohLO47cSs4bJQAtPb8Zh9w+hiDp+HSWWziiOX4+oYn/MerczjDOZdtcnQOrRHs7KAdUuo8KUIKys5gdezw5rHK/bPrS1ofKlum2gBkr/3IBzhh1g/msYgnb8iOPpjyBxbA5bQ7VPSK9gb+BmXDJ2RkHsFgQfzUSJ9RtwNROxsBWGl2jDClj7Zzl1xSc1OmMcQ9Gvidi7Yzd+TLqCx42boVHadvxfZD7cO7rC4EooPtt4ArxWndB9wHi8GeAKQ9lFhCzfhBRBO/g4Sl7I9ursX1k69q85iIKuMzDZz6LWmFmX/Zry5Ci8cw23S+zgE9ASlupG5AXXkXRgD8IionE0+TyyChuhmasVNMKlFp7iZtxu/BAahePXS2DpXIz49VEo9p+FSZ1N1XXq9tMaaBljQ/qm23ZYxI9NF2HS0Qq3D/6AH/YdQ2quGI4tmsK47BZO7NmO4IgEpOU3gqu7NSQVatUxxyn9cCNSG/nC5m4kgneE4/DpGygyc4FrE31UNqN7/tJG3bpX1WHjA38qivcE1Y5qA0Bxu/7U196MHL27UXevpmTA0ye36dGUp953UPYwiZZ2syShgS217OJPXVtZk0TsSEM3XWJaUNagP6I/JG8TPhnYtaVu/h3JxURAErdJFJat2hjuYdJS6mYpJAPbltTFvyu1spaQ2HEobbqk3mK19DKt72NFQhNn6uDfm/x9HMiI34i8FyVToeL7/2/vTOCiqto//pt9AYRhXyUWQUEUWVQEF0zNFMUll7L+by6VJaVmbplm4lK9Zearr2VqKu5rgCgJSGiGb7gjpCUZCCG4gCIKMjPP/84CzAA6F9I3X73fz2f8eC9n7jnn2c4z95x7j8HmfFcPLqTRYS4kEDhT56FjaM7uAqZAFZ1ZPoBcxHJy7tiD+vTpQR2dZcQXtaaXthQyLWCHbnNQCQ1YU6Y/0wRVZ2j5ABcSM/Lo2KMP9enRkZxlfBK1fom2FOpqqj77JfVzEJGVZ2eK7BtJIa3NSdAqmOZkaHtjjPI32jxtNPXylJDAJpAGjnqZPtpfQFtHtiJx1yV03mBnvMpNQ0let/knS/39mUhTgq1IIHehwB6R1MXLioQyHxq7PZ+UDTeBVObT7jcDyVJgRm5Bvah3N1+yEYvJbeBSytI3XbvxoKQTPf+cG1m7B1OPnkHkKueT1OcNStRXatpmqunsl/3IQWRFnp0jqW9kCLU2F1Cr4DnUlIiIyujgwtEU5iIggXNnGjpmDu0uqDRuOws7Y9N2pvGUPq8H2YsYW2ofTpHdA8hRJiH36BVUa66srtOIGrqwbgR5SBi78Aih8NA2ZGPtTx29RHWb6Bpv6vhgGZU14QfG3zdtH01dg40NNELvn+0je5KzTRvq3r8fdW5tRkLb7vTRkdodKzWbT0rI29+XHH3CqEdwML225wYLW3n4Ntws/9RgKj6xiXFMS/M2vUI+MiG1YmwmvLMP2bbyoG6hriRuP5t+ZtpeuX0ktRJ3pSXGTk9D5fWbPLfM9li0r+FG2I0wbb+aPubEhpBY8RLt0l+26sxyGuAiZurtSD369KEeHZ1JxhdR65e2kD5cNqbmAq0b4UESxvY9QsIptI0NWft3JC+RwWbXLPy0EQ362JK2mbQdtvFD3on69XYluzZhFBnuQwqhiNxHz6PpPVzIyS+cega7kRlfToGzj+q+xGaM0/qhhDo9/xy5WbtTcI+eFOQqJ77Uh95ILNWVYTF+NYaN7tn4wH8fVkkQX+BGo+J+Z0Ss4QYlT/QmodlAWlOqOa5gjj1I5DKMVufc1pbQ7EqdtbgXKeRdaFE247m39tF4NxHZPreMzup3Ja7+7SuKYoThEXOIqiqSaaKHiFyGrab6S2TR4l4KkndZRJpLVGe8Q15iX5p6uHZb4wr6aVYw2fq8Rfs032mwQ3HZmgEkET9LK/7UK+3aJhquEJFvTCrTAz23jtA0fxFJ+60io03xHwCbJOjapuGkEPlSTGpdTUxV08hfJKV+q4qZo2rKeMeLxL5Tqb47P9GsYFvyeWsf1YrAmIa7LVfSdpZJ0IP1d4v2jXcjke1ztKxeOfRVFDPoeMTQoSrDAURFxRuHka3QmYZ8nasfgFRUmvYeBZtJKGBWpvaM1oH5AnIbFUe/6yqlG8kTyVtoRgO1lbKwmeoMesdLTL5TDzM91VHx0ywKtvWht7QKb4oyWjNAQuJnV5BO7Q0GPxZ2ZrrtmstMJA+RCw1bnVOnq1tZi6mXQk5dFmVrj9lcpyGqKxtoqLWInhm9iS5qt99XUlHSJAqQ8kjUVBLEQkYN/cDo+6zso+E12NlAI7T+ySeB02BaVbs1eVkmzQuzIEnQPDqlbY4mCWKCbfvp9FOdilnYykO34eb7p8n4xML2VFfiaLgtM9CN2kAXtMpQUnHyFAqSM/pvbhLUTNtj0z5TSRAb+22cBF2jTcMVJPKNofpweYuOTPMnkbQfrWoyMKvoyoahZC16hkZvushoi0FZREmTAkjKE9XJgY2fNsKojy1pm2nbaU78cB25if7QyJ6xp9RJXiTkSShwWjpd07piKW0bxSTeHpM0BdiNcbV+6DaK4uqNgyZ6C8ls4BrSWIfp8asxrHTPxsb+Bh58b0uPwCUKr43wgG7mSoHukUEwu1eC4qsqoCoDO+ML4dizP/xuZePYsWPMJwfKrs8iECeRkJiH6qPxSL7ihOHT3kCAXHsRiL3HY3V6Jg580AWUsRPxhY7o2d8Pt7I132c+OUp0fTYQOJmAxDwV+FYKWFI+9n3xCdanZKOk2hxhS47j6oWVGMjmtfCWA/F5RiYS5kcyPdCh5jnCxUkI1c0y3HyICx4sB36OjMwEzI+sqwk8Rxc4CVW4WXaTOebDSmEJyt+HLz5Zj5TsElSbh2HJ8au4sHLgQ9/s8IH6qz6K+OQrcBo+DW/UKwfjV6cj88AH6GIwXQncRMreVNxsNxYfjGunv3XLh13vOXhvgBznv9utPaNF4IKo10bAQ/99RfdIBJndQ0nxVVY2wygcCktC/r4v8Mn6FGSXVMM8bAmOX72AlawU3pgqFnam5UFtRxUydsaj0LEn+vvdQra27ceQo+wK3WUSdV/S8MDrNKYiLQGHKvzwysxR8BJrzgjg3P8DTOopq79NbchDktED7aMRzbCBRgjg88r7GOentzOrrpga0w+y7CTE/1L7eBMfrr0GMHLSH7KxlYduw833T1PxiY3t3fx+Nw7e7IDxc1+Cj7bNAjg+Nw/v9rfU1tEsmml7rH3jATTbfrVYYuDnGchMmI/6cMmDo4sThKqbKGsyMFcgLeEQKvxewcxRXtBV5Yz+H0xCz7p5oWb46X1pSdtM2U4z2sV3xPNjX4C7dhbNHEGBPhAIO2D4uO6w0YzcfGsEdvQAr+y6pkAzxjgBXKJew4h640Ak43D3SoqhcXnT41dj2Oj+YdjYo4BVEsSzsYOtwco7vlgCIY+gUhHU5fnIv16Dy1teR0RYGMJqP73nIv2OGiWFRbhTWIhrcIOXp0h/BQ1COPkFw9dBivL8fFyvuYwtr0fUf5/59J6bjjvqEhQWKSFsPxnLFz0PYfpijOvXEa527giNjsGytAKwelJcaAVHi3KkfvY6hj/XHUG+LlBY+2FmRjVAau0TZQ8LoZUjLMpT8dnrw/Fc9yD4uihg7TcTuqo0NQnRfvJyLHpeiPTF49Cvoyvs3EMRHbMMaQUP/7n3B+mPUQ4KrwFuXp4w0o6TH4J9HaAfUnSoSnC56C4Enj7wNVoaYQ7vNi7AlUL9MQPPBnbGlUIi5IFUKlY2wygck5cvwvPCdCwe1w8dXe3gHhqNmGVpaJmI1KzsTMsD2s40Hvn511FzeQtejzBoe1hvzE2/A3UJOxk0RoUrBYyv8N3gYfioD1+BNl72TTvqQ5LRA+2jIc2xgUYI4dW2rW7Q0iN3d4c9/sTlgvokyNrOlgmhOljZykO34eb754PjExvbq0LhpQJUid3hZfSolxnTLmd2gdqQZtleM3zjvrTAfrUIYeVogfLUz/D68OfQPcgXLgpr+M3MQDWY8aWpwKy6goKiO+C7eRg9FcdXtIFX3SKjZvjpfWlB20zZTrPihy0cHet1yBcw/+dZwMqqPqUUCjV/1/sp6zGOBxsDH9P4nFgiBI9U0Li86fGrIWx0/zBs7NHAzrd4vPtm8nyJFBK+CKELc6HUTa8ZfJS4tLI3xDIpYxp3ceeOYVBVoyzvNLLzb0IglYAvCsXCXGWD7zMf5SWs7M1krIxAw6fvQW5xPrISv8GCCREwz9mIaVGDEcvihTnqgji8HPE8Zu0pgk0I88t37ldIOnsRq6Me9oosNQriXkbE87Owp8gGIUzGPferJJy9uBqGVfEV4Zi+JxfF+VlI/GYBJkSYI2fjNEQNjmX//h9GLxpPNJRqdVW11pCNeID+GOVAytjt3Tt3jK6jLsvD6ex8lBnaJU8GmZQHdeVt3DbyBRVu36oEpDL9sQamzvtUysZmNKapCJ+OPbnFyM9KxDcLJiDCPAcbp0VhcOzP7BJfI/iQsLEzLfdvO9N4SCV8iEIXIlfZ4BrMR3lppb6ghgdcpxE8yOXMryaqxG1j4aKq+p6Rbup5SDJ6kH00pFk20BBC1d27BsGYOVNRgUpmoDdvVR+KeHx+XXtY2cojsOFm++cD45OShe1JtfqH8g4q7+qvqYVwlzlR3y+NrpgBzbCj1VWobuz0zbC95vjG/WiJ/TKoCxD3cgSen7UHRTYhiHptLr5KOouLq6Puv3iZJ4dcxiR0jXTIyOGevqZm+el9aEnbGB5oO8pmtIsnAOMKrGnOGMe7r3GwG7+MYaP7h2Fjj4ZmiPg+WAQhuC1wLike5w2CjSpvPSYOGoEP91+FtFMw/Hm/4khGIRNq9KjysfG1cIS9thV3AoPRFueQFH8e9ZdQIW/9RAwa8SH2X1XianIsxoycj5QaZwRHjcfspZuRmjADQarzyDrd+BadJpDWo0Zp0kYklvpj6vZErF40E2++PAgRHkXIvcBENCaRMFbdX0BdiqSNiSj1n4rtiauxaOabeHlQBDyKcqGriqlJfRXJsWMwcn4KapyDETV+NpZuTkXCjCCozmehie40AR9Sxqio/Bqu1Qn1Dk6dOl8vYzZIOyHYn4dfj2SgsF45yN/4GsLDXsPWEgPJ8J0QEuQOOpGMpGKD81UncSC9ECK/IP0JE7CwGfXVZMSOGYn5KTVwDo7C+NlLsTk1ATOCVDifdRpNi4j3wKBhEWTKzthYgQWCdI1HvHHjsX7iIIz4cL/+RHPhw6FLKLzoNFK/N3jhZ9UpZGTq3n3VEDYyMvaDlmF0jb9kA0qcST+Ea3Vfu4OfDx5GqWUowgMM7w8ZwMJWHroNN9s/1Sbjk2nb48GtayieUZ9G+iH99IaGe7k4dLSwLongS5mkkMpxrd7pcefUKZxvltM35q/7RvPtV4O6NAkbE0vhP3U7Elcvwsw3X8agCA8U5V7Q3kFr8sYD3wFdQr1Ap1PxvcHbL6tOZSCz7kVQf91PW9Q2k7bzqOLHQxrj2IxfjWCn+4cTfx8+fz1CCjtgwvRhsM5agCEvzMP6fYeQunMpJrwwGWuzauDuZw1B27F4d7gVDs8biUkr45GenoBVU8Zg4VEHjI4ZBbfACZg+zBpZC4bghXnrse9QKnYunYAXJq9FVo07/KyFUDgCvyV9gkmvLsLWlB9x9NBufBG7CTnSzng2wlrfmHokFhaQqc8j+ZtNOJDNBCG31rClPCSt2YYfz57D8dQ4fDjy/7DqN6ZwdTXuaqKM6nfEf/I+PvjmJ+017o8aJSf3YuvWrUafbTt/ZCRqAbfWtqC8JKzZ9iPOnjuO1LgPMfL/VkFXFfMzj/nV6MgcJX0yCa8u2oqUH4/i0O4vELspB9LOz6KJ7jSBGJ26BkGWF4f339+A5B+SEffhS3hzx3WIm6NVQVuMfXc4rA7Pw8hJKxGfno6EVVMwZuFROIyOwSgnw4uJ0W3Se+gnOoDp0W/gyz2HcDg5DvNGjMGXeV4YO/0lfTkTsLAZvk7h+GTSq1i0NQU/Hj2E3V/EYlOOFJ2fjUDTIpLAwkIG9flkfLPpALIbvKZU2MGUnbERnBAdJkzHMOssLBjyAuat34dDqTuxdMILmLw2CzXufvpyzUcc8iamD5Rg/7TBeOPLPfh+P2Ojo8Zged16GWPYyMjYD1r2Jl3ja1T+BRtQ49p3UzB08r8R//0+fPv+cIz595/o9Pa7GGylL9IQFrby0G242f7JNxmf2NieuNskTH22BrveHorJq+KRsn8TPho9Cp+f0ehfd7dO3KkrgmR5iHv/fWxI/gHJTGx56c0duN4sp2/Mw/CN5tqvBr6FG1rbEvKS1mDbj2dx7ngqE8dG4v90gRnV2sDcEDFC3pyOgZL9mDZYo8PvsZ+Rw6gxy1Ff1V/30xa1zaTtPKr4wWc3xpmCzfjVBGx0/3Di7yOAHkiDp2v03N37CtmIg2m+7jElhkrK3TaDhgS5kZVESCJzR/LvO4nWnNQ/+qqhMoe2TIuiDi4WJBbJyb7dczR1c07dUy1UmUvbZgyhIDcrkghFZO7oT30nraH6S1RT3t45NDS4ta4OmQ15d3uRYg8UkPahgwZPh6muJdOMbk4kEwjIaXwSc6KYUhYMpUBncxKJpKTw6EIj5u6gtI97kcxyEK29oiKqOkQxHgISRy7XXLFJdE+HaX+YNfrwpEO0ZVTFKbRgaCA5m4tIJFWQR5cRNHdHGn3cS0aWg9Zqy1B1Hu2dM5SCW+v6K7Pxpm4vxtKBAm1vmqDh02EM1Rdp1/QB5O8gZ+RhS759p1Dc1nfJT2b8dBgb/eVsmUZRHVzIQiwiuX07em7qZtI9xNP4GrfObKDJAwLI2UJMYjN78u01lj5JKdTKXYPxE0h67u6lV2zEFDz/rP6EaZupzttLc4YGU2srCQlFMrLx7kYvxh6g+4qIVHQteQZ1c5KRQOBE45PKGvffhJ2xa7vmMttoxpAgctO2zZwc/fvSpDUnqbb1bK/TiPKTtDamL7WzNyOxzI7aDZxBs4a5kLSpp8MYTMmooR8Yf5+dfTTyJQZTNtAIrX+KqMP4WHq7txejcxkpvCLoH5+l1z+ZqX06TEwhsTk6n66DRXx5yDbcfP80EZ80mIxxjKxLj9DSV8LoGUafYnMXChnzKc0bakOiwHl0Wtu4arq4azoN8HcgOaNvW9++NCVuK73rJ6t7KqrFtmeqfSYfkWcwYb+ap4aMnw5TUXHKAhoa6EzmIhFJFR7UZcRc2pH2MfWSWdKgtVc0hZqk/ORaiunbjuzNxCSza0cDZ8yiYS7SOjloMOWnjTDqYwvbxsJ2WhI/ytdFkUTcm/5VVOswSrr4aTiJrUbpDtmMcQ3GSR3GYwur8aspTOqegYUP/Lfhaf5hBnAODg6OR0dVPP7ReiTOvZWF/+jf6s5hjLr8EnL+FOMZXxdY1K1aLcO3g10x8fbH+D31bbj8TT+WOTieVDiX4uDg4HgMoCtbMaGTH4av+r1uzUTVuXXYdKQGPl27wIGL1hwcDx3OrTg4ODgeAwQ+/8B7Lzvi6Lsh8Avrg369Q+ATNhunfafhi2kh3N0zDo5HADcdxsHB8ehRlyL7h1OocA9HNy/N3mMcTXMbeYf2IvHob7imlMOlYx8MGxwCBy4D4uB4JHBJEAcHBwcHB8dTCTcdxsHBwcHBwfFUwiVBHBwcHBwcHE8lXBLEwcHBwXFfVEWnkHmxQn/EwfFkIZjPoP//o+V2Gcr5MkgfWtqlRlHyMnyy/gJadQuEy39x4aAyews++tcR8AOC8YwZ6w16nl4euu4fEcpc7Fj0JdKUfgj1NNe+obcO9VX8sGoxvt5fDNvQDnC8zy4PD4vHw8aUyN7yEf51hI+A4GfwuJm6MncHFn2ZBqVfKDzNH3M/VJ5G3PwVyBR2Qoj7g/ZXawbqMhxd8zE2/eGMbn62Rr9o1eU5SNqwDlsSM3DuqgRubVwN3j2kQY3ynCRsWLcFiRnncFXihjauFgabajKob+J86jasW/IeZuz8E2bWzvDytkfdRu0m+fvsR3k6DvNXZELYKQju7Bv8l1CXHMLKJauRXGKP0AAHo818/zJN2Y/yF+xcvBRbTtTAp3MbWP4t8fXxjhGs0CyMftTcPbqYIj0H0so/a990+TCooZ9ntyeRZACtKdOf+i9RuX0ktRJ3pSXn7/veVA49j0b3j4gm36aqo+ZsLIXKFNTrn2eoSn/uUfJ42FglbR/ZisRdl9DjaOpNvhn5caVyEw2Vi43eZvzXUFHJd+PIQyQglwn7jWxSmRdHY7xlJHUMoIhuAeQkE5Fd5GI6VqEvQErKixtD3jIpOQZEULcAJ5KJ7Chy8TGqK1LzC30zzJ0kIivycLclS2c3shaJyW3IV5RTrS9jkr/Pfio3DSW5uPbN+f8Nauj0h0Ekte5NS7MfQYRown5u7Pk/cpZ40bg9xYw1/F083jGCDf+V3LHqlx/xU2GVdm8JjqeL/yndS6OxobQaJxq90ViJXzJyoRi7EuundsDfs9cxR0Ok0RtQWn0C8zs8fc+Pq4t34d23N6GwoWOpS7B1xrvYwX8Fu8+cxpGjZ5GbOhveJxfinS/PaV/CqC7Zihnv7gD/ld04c/oIjp7NRepsb5xc+A6+PKd7TWPZrg8xK5GPkZtO4/iHEfAdvwfH10VDve99zNt5VVuGwwBlDn74xQ4TVn2Lye3/GxGiDD/9pxRd523AsqGO3LqWvwC76TDVVZxJ3IyN2xOQduISqqw94W1ruK++EiWnErF92y7EH8zE+asCOHq5wZKJTRWZa7BwTSIyf7sBVXUpyiTt0dnDXHur9df03di6fQ8Sv8/AibwKtHrGGw5ytupU48+0r7Eu0xJR741B0H23+We4V4yf98Yhbsc+pJ/8A1UK9u1vipqcXfh87010f3McImzVTd4ONLodK/oFOxb9CydbhcHpSjw2rN+B/T/9hkprL3jbSY2mXVRXzyBx80ZsT0jDiUtVsPb0hnFTS3AqcTu27YrHwczzuCpwhJebJesXqWmnEFachlUXB1ze+y2+3XkQJ4slcG/nCouaAhzZuhYb9qQhu6wVvH0dDW59q3Hz13Ts3rodexK/R8aJPFS0egbeDnKdAyrPYVvsSpyx8MTN5FXY8P153Cg+hi079jfWPYOpfipLTiFx+zbsij+IzPNXIXD0gtv9FNIELepnk9NhKlw9k4SU80pYSqtx4541PL1toWuqEue2xWLlGQt43kzGqg3f43yVI9p6W0PM/K30dCI2x+1AQtpx5NfYwsvTxiCBuofin/cijvn7vvST+KNKYXDdhjam9wlTftgi29D0j2nnxu1MO0/gUpVh/2qQs+tz7L3ZHW+Oi0BtM+pRInfHIiw/bobONr9j+5r1+O5wDm7I3NHG2UwfmB8kowfVXcv95djUdNi94p+xNy4OO/al4+QfVVA09J+m+Avx7f7cxsWUzfh2SwIO/1oFe887SP0yAXciYzC2m0Jfhk3/m0BdgE3jRuIb61cxRHACv7uNxuTBbbR6Vl/djjnv7IH1lDgs6qebIpO6hUKRswor0mUYPKEnhDvn4J091pgStwj9tEqVwi1UgZxVK5AuG4yJkXbI3hyLr/J6YNG/X4F79nbElffG1Dd74RkrLwSEdoCfE5spvabtx6SOWmLHty8iZfO32JJwGL9W2cPzTiq+TLiDyJhX0U2hr/hBetb6/gqctuoCh8t78e23O3HwZDEk7u3galGDgiNbsXbDHqRll6GVty8cDabY1Dd/RfredOTzLSG4dhG/V7TCM94OqB/KHoH9qCtQdOEyqlxC0Lu9fV0SpG3L7q3YvicR32ecQF7DtvzXY8T/APo7QvdFdT2d5vWwJ5HcmdqHR1L3AEeSSdwpesUZ0u5/R9V09st+5CCyIs/OkdQ3MoRamwuoVfAcyqggKju4kEaHuZBA4Eydh46hObsLiKrO0PIBLiRmrtmxRx/q06MjOcv4JGr9Em0pZHtjj910mDJ/N70ZaEkCMzcK6tWbuvnakFjsRgOXZulv/T64/U1hPFXR9O1Ao9ux2mkWCXV6/jlys3an4B49KchVTnypD72RWKq/lami6+nzqIe9iOTO7Sk8sjsFOMpI4h5NK87oJE3VZ+nLfg4ksvKkzpF9KTKkNZkLWlHwnIz629gm0E4hyDtRv96uZNcmjCLDfUghFJH76Hk0vYcLOfmFU89gNzLjyylw9lH9t6rozPIB5CKWk3PHHtSnTw/q6Cwjvqg1vbSlUNd+7eaXEvL29yVHnzDqERxM/zdvTmPds+hn9dkvqZ+DiKw8O1Nk30gKaW1OglbBNOd+CmmCFvWz4XSY6jqlz+tB9iKm3+3DKbJ7ADnKJOQevYJ0Tb1Lu15SkMTbn3wdfSisRzAFv7aHbqj+pMQpwWQlkJNLYA+K7OJFVkIZ+YzdTvkaG1Hm0+43A8lSYEZuQb2odzdfshGLyW3gUsrSd7HhdJhJP2yJbZjsn6lb3fqNSdtHUk9nG2rTvT/169yazIS21P2jI/rNIO8nI1N1M5iQo/F0mJLyd79JgZYCMnMLol69u5GvjZjEbgNpaa1Qm+CvxrcmqblA60Z46KaSQsIptI0NWft3JC+RwXQGm/43iZLyvhlEjs5Daf3FYzS7vdhoOqwq/W3yFLnRxBSjCTLK+2cEE2+jaO31Kkp/25NEbhPJuEge/TNCTPIozQaZKipY2YeJX51o9rEKKls3hDrPPdVoitg0De2HhY5aYMc1F9bRCA8J8x0PCgkPpTY21uTf0YtEBtNhJvWs9X05derXm1zt2lBYZDj5KIQkch9N86b3IBcnPwrvGUxuZnySB86mo3odVZ1ZTgNcGLk5d6QeffpQj47OJOOLqPVLW0g3lD0i+1HmUGyImBQv7dLbKYu2/C0x4vHHRBJUQckTPUjkMoxW59zWn7tFWYt7kULehRZlM25RnUHveInJd+phRhw6Kn6aRcG2PvTWPt13ytYMIIn4WVqhXxdybdNwUoh8KSb1hvZYw60j08hfJKV+q4r1Z0zBIglSFdPGYbYkdB5CX+fqTUVVSmnvBZOZJIBmZTJRgEX7G9KyJIhPArdRFPe7PvLcSKaJ3kIyG7iGSjXHFcyxh4hchq2melFn0eJeCpJ3WUQ6Ub9DXmJfmnq4rqX006xgsvV5i+7T1EZoBw6+gFxHbqI/tFGtglIneZGQJ6HAael0TaMiRkbbRjHO4jFJU0CjMBquEJFvTCrVaezWEZrmLyJpv1W6XcC1SRCTyLafTj8ZtKWh7k33s5oy3vEise9Uqu/mTzQr2JZ83tpHLLvZsn42SIIqkieSh8iFhq3Oqav3VtZi6qWQU5dF2cyRboDni9rTdINO39o3ntxEtvTcsrN6m6qm376KYgKJB8UcukPFG4eRrdCZhnydqw9gKipNe4+CzSQUMCtTe8bYxkz7YUtsw3T/2CVBfIETDV6Vo+9rGWXOCyMLSRDNO6WRYtMyMl23KTlW6XSsT4JUxRtpmK2QnId8TfWunkbvBZuRJGAWaVy9MQ8nvhmjoisbhpK16Bkaveki02IGZRElTQogKU9UN4ix6X9T1Jz/F/Wzc6GRm5kfHzU/N0qCKrePIktRJ5qn23K+jor1g5hBNYw+vnCLto+yJFGn2l3pa6mg9YOYRCLsY91h+WGaF6YgoWVb6tPNm3z+byNll7JeDKTH2H7Y6KjZdqy6QhuGWpPomdG06aKufcqiJJoUICWeqDYJYqHn2hjtOpI26QIGVaROIi8hjySB0yhdFzCodNsoJqHxoEmM/TGBkTYNV5DIN4bqh7JbdGSaP4mk/WiVJjA+IvtpnASZbsvfEyMefx5886oqAzvjC+HYsz/8bmXj2LFjzCcHyq7PIhAnkZCYB/CtoLAk5O/7Ap+sT0F2STXMw5bg+NULWDnQTH8hYywHfo6MzATMj6y9LawGz9EFTkIVbpbd1J97CNxMwd7Um2g39gOMa6e/7cm3Q+8572GA/Dy+232yRe1vGQK4RL0G5heL7lDRHZFBZrhXUoyrKo2odyK+0BE9+/vhVrZGzswnR4muzwYCJxOQmKdimqqAJeVj3xefYH1KNkqqzRG25DiuXliJZjWV74jnx74Ad+09UHMEBfpAIOyA4eO6w0ZjEXxrBHb0AK/suqaARmH4PCMTCfMjUacxniNcnIRQ3SzDzbp1CXy49hoAplv3xXQ/CVYKS1D+PnzxyXqkZJeg2jwMS45fxYWVA9EsjTS3n0ZUIWNnPAode6K/3y1ka23/GHKUXaFraqK+HHMZ114YUNfpahyNT8YVp+GY9kYA5NpzYniPX430zAP4oEsVUvam4ma7sfhgXDv9LWU+7HrPwXsD5Dj/3W7tGSNY+GHzbYN9/0wh8HkF74/z0/fVCl2nxqCfLBtJ8b9oz2gwlhGbuk3JsX5iUcPNlL1IvdkOYz8Yh3pX74057w2A/Px32H3ynu6kIY8kvlUgLeEQKvxewcxRXkyLGQTO6P/BJPSsm0JpoezvncOyiR/ifL+lWDbapW4KxAhlDZQQQiyqn67RwBcJmQh0D1XVxBRRAkIxjIvwIRIKmDqqdIeW3fHRoVM4+HE07O5VIC/uH+jg+gy6vbUFF6p1RZoLGx01244r0pBwqAJ+r8zEKC/dI5sC5/74YFLP+ql8NnrWwofj82Pxgi5gwDwoED4CIToMH4fuuoAB68CO8OCV4fp1JmjDEgM/z0BmwnzUD2U8OLo4Qai6iTJNYHwk9tMUptvyd8aIx5kHJkHq8nzkX6/B5S2vIyIsDGG1n95zkX5HjZLCIsaZ2mPy8kV4XpiOxeP6oaOrHdxDoxGzLA0FTcQdDUIrR1iUp+Kz14fjue5B8HVRwNpvJjIY5yK1Wl/qr6MquYyiuwJ4+vgaz3mae6ONC3Clhe1vGTzY2NkaPILKh1giBI9UUJEa5fn5uF5zGVtej6iXM/PpPTcdd9QlKCxiQlv7yVi+6HkI0xdjXL+OcLVzR2h0DJalFTDhrRnwbOHoaNASAfN/ngWsrOqdTKgJiLXLmYVWcLQoR+pnr2P4c90R5OsChbUfZuoUxqSwtTBBwqiPDWHTT6D95OVY9LwQ6YvHoV9HV9i5hyI6ZhnSmquQ5vbTEHU58vOvo+byFrweUd/OsLDemJt+B+qSQn1B5rrWdrCtq+YOCguvAW5e8DR8RlboBL9gXzhISnC56C4Enj7wNTZKeOuMUn9cDxs/bLZtNKN/phB6tUVbw1cGyN3hbg/8eblAf6KBjFjVbUKOuqxIjwoll4twV+AJH2OhMq7eBi64ovWfhjyS+Ka6goKiO+C7ecDDoCl8RRt42evDbYtkX4VT/3wDi/4YhGWfvwCn+0RuvtwMMkbj1UyyY8i9qnuMlCSQyQSQm8mYE9UwLsIkSPeYgV1isNZH6o7IiR9j1VthCJqeiIOfdsf1b8djzJJT+gLNgZ2OmmvHqisFKLrDh5uHh0GM50PRxgv14mahZy082Do61scvvoD5Pw8WVlb16zaFmmRSs4xEewArRwuUp36G14c/h+5BvnBRWMNvZgaTwhO0Q9mjsJ8mMd2WvzNGPM48MAniS6SQ8EUIXZgLpW7qzOCjxKWVvTWloAifjj25xcjPSsQ3CyYgwjwHG6dFYXDsz00IV42CuJcR8fws7CmyQUjUa5j7VRLOXlyNKP2vg4cFTyaDlKdG5e3bBgM1g+o2blUyPi7TVNjc9jcBj3ERxsoMY0p1VTWT3OgP9PA05ZqED4lUwvxaC8XCXGUDOTMf5SWs7M388uUrED59D3KL85GV+A0WTIiAec5GTIsajNifWbVUB08A/gM1b4y6IA4vRzyPWXuKYBMShdfmfoWksxexugmF8ZgL36+XbPvJV4Rj+p5cFOdnIfGbBZgQYY6cjdMQNTgWzelmc/tpBF8CqYT5dRy6ELnKBu1kPspLK/UFGXh88Os6LYZMykSvu3dwx1D/6jLknc5GfrmI+TsP6srbuG1slLitM0r9cT2s/LC5ttGc/pmAqu7irmFfqAIVTFfMzFvpTzAYyohV3SbkWGaY1PCYwV0KnroSt42Fyrj6LVRCylyrsSE8kvjGk0PO/GKnRvqtQvU9fUdaInvlb0jYm4XyPzZgGJPYa2IJT9QZS87dQ9GaAZCKQxCbwyQRrm5w4pXizz8N5aNCUVEJ1FJHuDpI4OrmBF7pnzAuUoSiEjWkjq7MQRXyDm3Aiu3HGdnp4Elc0GvyCrwXycPZ5AP6s82BpY6aacc8uRwyHjWO8Uz8rRc3Gz1r4EHQvMCIuJcj8PysPSiyCUHUa3PxVdJZXFwdpb/Dq+ER2E9TsGnL3xgjHmcerHGLIAS3Bc4lxeO8gcOo8tZj4qAR+HD/VaivJiN2zEjMT6mBc3AUxs9eis2pCZgRpML5rNPQTG5pBsY61KVI2piIUv+p2J64GotmvomXB0XAoygXFxg9qB/inSC+UwiC3AknkpNQbHDZqpMHkF4ogl9QB1btfzB8SJmBncqv4ZrmDqmWOzh16jwTethjERSMtjiHpPjzqBe1CnnrJ2LQiA+x/6oSV5NjMWbkfKTUOCM4ajxmL92M1IQZCFKdR9bphziNaIQapUkbkVjqj6nbE7F60Uy8+fIgRHgUIVenMOPg0wAj3TOY7GdJCZJjx2Dk/BTUOAcjavxsLN2cioQZQVCdz8Ij62YjLBCkM37EGxs/1k8chBEf7tefaIgUnYL9wfv1CDIK6y1Alb8Rr4WH4bXtfIQEuYNOJCPJ2ChxIL0QIr8g/QkDTPphSQtso6X9a4zyTDoOXavvy52fD+JwqSVCwwP0ZxrCpm4Tctxaoj+jgQ+nkCC40wkkJxUb2GMVTh5IR6HID0Edmni75UOKb0bwHdAl1At0OhXfXzFoyakMZJbWHrdA9sLWeGFRHLZs2VL/2bQEw1qLYN1nDjbGLcIwVyGEbTsjyPo6fs7MqfcvJuYezbwAfoeu6CwXom3nIFhf/xmZTNJUi7r0KDIv8NGha2fmSInjX0/B1Olf4/Bt3d+1qGtQXa0GT2w8FckONjoSNtuO+Q5dEOpFOJ36PerFXYVTGZmoF7dpPbcEdWkSNiaWwn/qdiSuXoSZb76MQREeKMq9wCQ3TFxk6n809tMY021R/60x4rGGyegegIoKNo8iF6GMvKPn0reJaZSy43N6NbAVCR2iae0lJq+uOUULQuUkbTOMFm45SEd+TKNd/xxNvjIL6v5pDjEl6O7OF8lK6EJRH22g/WcvU+I4FxJaBNOkuCN0JjuLUjbOo8He5iQSiihgTpauamUefffxbJqzuvYJpYboF0aLgumtdVuICQoGn62048gfTBkl/fb1QLIXKih4wjLanZZBBzbOpSgPCUnbTqID1zWXMd3+hhgvWmVktKo/tRLYUvdp6+lA+gHaOC+afOwsSS4xXBhdv+BWx13a+4oNiYPn01nNSVUBbR7FyEXmTdFzv6XEtBTa8fmrFNhKSA7Ra0kn6gUUKpdSm2ELacvBI/Rj2i7652hfkll0p09zNG1R0vldi2j2nLX0n9q1bw0wfqJGR/m6KJKIe9O/ivSLl5nrXPw0nMRWo7RHtxPHMTZgQcGT4ujImWzKStlI8wZ7k7lISKKAOZSluZR2YbSYQmKNZWas+xss+llDpxaEklzahoYt3EIHj/xIabv+SaN9ZWTR/VPSdfM87VrE2Mba/+gqaYKW9LOhnlQFm2mUi5Bk3tE099tESkvZQZ+/GkithA4UvfaS5gvaRb/ikFhdu/SoirbRi64iUoS+QSu+O0SH4v9NMWG2JPYYT/HXVKT87WsaaC8kRfAEWrY7jTIObKS5UR4kkbalSVqjbMLGTPihadtojOn+sVwYzROSXbcYWvldMiWum0393SRk0fkjytKsHb2fjEzWbVqORjpW/kZfD7QnoSKYJizbTWkZjB/OjSIPiZTaTjpAOqk25OHEt4YoL62jIY5CstLqN5mSNPHNU0o81C9sZdN/kzSxMJrxVvphii+JFWE0M/ES3a4qocxl0doF5tHrCpgea4r8QFN8xaQIm0mJl25TVUkmLYt2I5FtNK0r0PnGjfix5CY0pw4Tt1HWimjqPDuNjv77BfIUWVDPz37RljHthw3sh4WOmm/HSrq0bgg5Cq10MT45iYm/g8lTyiPULYxmoeemYnT5OoqSiKn3v4p0cmNQXvyUwsVWNGoHE2BvJ9I4RocWwZMo7sgZys5K0dbtbS4ioSiA5mgC4yOyn0YLo1m05e+JEY8/JpIgDZWUu20GDQlyIysJM+iZO5J/30m05qTuAVgN1Xl7ac7QYGptJWEELiMb7270YuwBKtALRXUtmWZ0cyKZQEBO45NIVZxCC4YGkjOjIJFUQR5dRtDcHWn0cS8ZWQ7SPKLJUHWIYjwEJI5crjtuhD4J0i3oaPDhkXRInL7cLTqzYTINCHAmC7GYzOx9qdfYTyilsH5wNNX+hjR8fJmqL9Ku6QPI30FOIpkt+fadQnFb3yU/WTOSIA2VubRtxhAKcrMiCZMQmjv6U99Ja6he1NWUt3cODQ1urdOFzIa8u71IsQcK9M5URfsnuJBA0p9WX9OeaESLkgNVMaUsGEqBzkyiKpKSwqMLjZi7g9I+7kUyy0G09grzvfskQQ11r8VUP6vzaO+coRTcWvd3mY03dXsxlg7UKqRqP01wEZCk/2rdcRM8jCRIQ2XuNpoxJIjctLZhTo7+fWnSmpNGj383HOA1VOZsoWlRHcjFQkwiuT21e24qbc6pz0xvndlAkwcEkDPzd7GZPfn2GkufpBTW19vQxkz6oSnbaJoH949dEiTqMJ5i3+5NXsw1ZAovivjHZ5SufWRQV+a+Mnpg3ToeJMdGOr51hjZMHkABzhYkFpuRvW8vGvtJChm4ehP89fjWFOUn11JM33ZkbyYmmV07GjhjFg1zkdYPYgxs+v9AmkyCGMqP0efRniTn8UkoFBBPZEdh7yboH9nWUX7sc4r2lBOPLyShgEciuzB6N0H/ugsNqhv046dDyMdCQHw+X/vhieypS8wOyquVp0k/bMJ+TOqoJXZcTifXxlDfdvZkJpaRXbuBNGPWMHKR1iZBGkzouSVJEHO2OGUBDQ10Zn4Qikiq8KAuI+bSjrSPqZfMkgatvaL9ziOxn0ZPh7Fpy98RIx5/eJp/mMSB40nh3jHMjFiGwPRteLHJFf9PBveOzUTEskD8vO1F/RmO/z5ViP9Ha4w89xay/jMfT+GLmx9jlLjx6wmcLbwHRZsgBLjVvrzSAOUN/HriLArvKdAmKABuZo1XR6grL+M/n76MCYWvY+vC4ejgZLwOkPNDjv91Gls9x/8wKlzatQI/tRuGSDYvdP1fRXUJu1b8hHbDIvUnODg4jBHC2qcLevXujo5NJUAahNbw6dILvbt3bDIB0sA3c0OHzt3QLSwU/g0SIM4POZ4EuDtBTxj3Sotx09oJdk/0r/J7KC2+CWsnOybUc/x9cHeCnm44P+T434dLgjg4OFqIGqXZP+BUhTvCu3lBtyscBwcHx/8OXBLEwcHBwcHB8VTCrQni4ODg4ODgeCrhkiAODg4ODg6OpxIuCeKAqugUMi9W6I84ODg4ODieDgTzGfT/f8xQInfHInyZpoRfqCfMefrTjyvK04ibvwKZwk4Icf+Lz6crS3Bibxw27tiHH86WQuzmA1eLum39GNQoz0nChnVbkJhxDlclbmjjatFg41IWZdQ3cT51G9YteQ8zdv4JM2tneHnb1+++zMHBwcHB8SSjWRj9eKJ7G6046EMyeOnv40vlJhoqFxu9EbYlqErTaE64DYnMW1Nwj3Dyd5CS0K4XLT52W19CSXlxY8hbJiXHgAjqFuBEMpEdRS4+RhX6EqzK1PxC3wxzJ4nIijzcbcnS2Y2sRWJyG/IV5VTry3BwcHBwcDzBPMZJ0P8YDyUJKqf9r3uQyGUIfZ2jfxl6aQq97S8ms8gvSfMGeNWVOBpuJyKf15OoRPsu9zI6Oi+MLOWdaWG2LltkU+bG1pFkI/KgV7b/QdfXDaHOc7Po97gR5CK0puGbSrVlODg4ODg4nmRMTIfppqSWHzdDZ5vfsX3Nenx3OAc3ZO5o41z7FlIlzm2LxcozFvC8mYxVG77H+SpHtPW2hlh1FWcSN2Pj9gSknbiEKmtPeNs2eOuoshSnmTJxO5gyx/NRY+sFTxvNLsVNT4fdK/4Ze+PisGNfOk7+UQWFpzcaXrIRJtuhRMmpRGzftgvxBzNx/qoAjl5usHzgG8Bu42LKZny7JQGHf62CvecdpH6ZgDuRMRjbTaEvo8LVM4nYvHE7EtJO4FKVNTy9bXHf5pbtwfsTt8Phg3h8EWULTZd5Zu7w91DA0sEHAYwclDvm4J091pgStwj9bDUakMItVIGcVSuQLhuMiZEOuLrdVBk7ZG+OxVd5PbDo36/APXs74sp7Y+qbvfCMlRdTTwf4OT3Jr5zm4ODg4OBg0CdD90E/JdU+kno621Cb7v2pX+fWZCa0pe4fHdFvoKbbIFHi7U++jj4U1iOYgl/bQ9eup9O8HvYkkjtT+/BI6h7gSDKJO0WvOKPf8I1I9WciTQm2IoHchQJ7RFIXLysSynxo7PZ8UjaaDlNS/u43KdBSQGZuQdSrdzfytRGT2G0gLc2qnwhqiMpkO6rp7Jf9yEFkRZ6dI6lvZAi1NhdQq+A5lHG/y9ZcoHUjPHRTSSHhFNrGhqz9O5KXyOBOkOo6pc/rQfYiOTm3D6fI7gHkKJOQe/QKOlMrgAZU//A2eUpDKTangvIPb6KlCz6k2H/tpKyS2p3pqij9bU8SuU2kFMMdE5V59M8IMcmjNJvPsimjooKVfUgu7kSzj1VQmfZO0CmDzV05ODg4ODiefFglQXyBEw1elUO6vZvLKHNeGFlIgmjeKc2wqUuC+KL2NP2n2nUrFZQ8UTOtM4xW59Seu0VZi3uRQt6FFmmnZG7RvvFuJLJ9jpad1e+uXf0bfRXFJCweMXSoyjgJUhVvpGG2QnIe8jXl6pMIzfqZ94LNSBIwizKNtlGuhUU7qjPoHS8x+U49rO8f862fZlGwrQ+9ta/2O4ao6MqGoWQteoZGb7rIpFAMyiJKmhRAUp6oLgmqSJ5IHiIXGrY6h+pqzlpMvRRy6rIoW3/GmIqNQ0gm6kwvjg0kWzsf6tIrgvzsxSRy6kefZWmuUknbR1mSqNM8Om2UsVTQ+kESEoV9zPyfTRmG8sM0L0xBQsu21KebN/n830bKLuUWA3FwcHBwPD2wekRe4PMK3h/nB7n2yApdp8agnywbSfG/aM9o4Lv2woAg/bblVRnYGV8Ix5794XcrG8eOHWM+OVB2fRaBOImExDyg+ijik6/Aafg0vBGguzLE3hi/Oh2ZBz5AF82MmAE3U/Yi9WY7jP1gHNrp55P4dr0x570BkJ//DrtP3tOdNIRNO/hWUFgS8vd9gU/WpyC7pBrmYUtw/OoFrBzY1DbsFUhLOIQKv1cwc5QXxJpTAmf0/2ASetY9VlWFjJ3xKHTsif5+t5CtrfcYcpRd8WwgcDIhUV/OEDXuVFZCVZOFxOw+2Jadi2PpR5CdewAx9kfwwVtfIFsJKGuYf4RiiIye4OJDJBQA96q0R2zKwLI7Pjp0Cgc/jobdvQrkxf0DHVyfQbe3tuBCta4IBwcHBwfHkwyrJEjo1RZttaO9Hrk73O2BPy8X6E8wF7K2g63++Wt1eT7yr9fg8pbXEREWhrDaT++5SL+jRklhEXCnEIXXADcvT4h0X9MidPJDsK+DPuGqRYWSy0W4K/CEj6/xQh1z7zZwwRUUFjEDfwNYtUPYHpOXL8LzwnQsHtcPHV3t4B4ajZhlaShoIq+C6goKiu6A7+YBD4Om8BVt4GWvF6e6HPn511FzeQtejzCoN6w35qbfgbqkUFfOCD4kYjF4vFboN2UOnnXQCZNv0wszJnYH70wyvi8gyM1kTCJTjWqjzU7uoeqeCpBo1vHwWZTRI3VH5MSPseqtMARNT8TBT7vj+rfjMWbJKX0BDg4ODg6OJxdWSRBV3cVdtf5AA1WgohIwM2+lP8HA44Ovv/PAl0gh4YsQujAXSt2Um8FHiUsrewNiGaRMEnH3zh0YjtXqsjyczs5HmVFOw4NMJgVPXYnbtw0bwuQkt2+hElLIpI27wqodjAgU4dOxJ7cY+VmJ+GbBBESY52DjtCgMjv2ZSR0awJNDLuOBKm/DuClVqL6n7wlfAqmED1HoQuQqG9ZLUF5aqSvXAKmzE2yFciisDJdO82FlbwspI/ObZQK4ujmBV/on/jSUj6oIRSVqSB1dmQMhizJVyDu0ASu2H2dkp4MncUGvySvwXiQPZ5MP6M9ycHBwcHA8ubBKgpRn0nHoWv2If+fngzhcaonQ8AD9mQZYBCG4LXAuKR7nDQZiVd56TBw0Ah/uv8qM+J0Q7M/Dr0cyUKjSF4AK+RtfQ3jYa9jKDNj18OEUEgR3OoHkpGLU/6UKJw+ko1Dkh6AOhreq9LBoh/pqMmLHjMT8lBo4B0dh/Oyl2JyagBlBKpzPOo2b+u/UwXdAl1Av0OlUfH/FoCWnMpBZWntsgSBdxYg3rhjrJw7CiA/3608YI+rUDUGya8jKzDFIvpT4LfsCbsu94OMhRdvOQbC+/jMyc+qvqy49iswLfHTo2pk5ErIoo8Txr6dg6vSvcfi27u9a1DWorlaDJ24wF8nBwcHBwfEkQg9EvzCaJyS7bjG08rtkSlw3m/q7Scii80eUpV2MrFsYLQ6JpZzah5g0Tx9tHkUuQhl5R8+lbxPTKGXH5/RqYCsSOkTT2kuagioq2vYiuYoUFPrGCvru0CGK/3cMhdmKyWN8PF1TNXg6TPkbfT3QnoSKYJqwbDelZRygjXOjyEMipbaTDtB1bb0NYdGOmlO0IFRO0jbDaOGWg3TkxzTa9c/R5CuzoO6f5lBdlwxQXlpHQxyFZBU8gZbtTqakjfNosKeUeKhfGK0q2EyjXIQk846mud8mUlrKDvr81UBqJXSg6LWXtGUaU0YH3vAikWUoTdn9G1WoKumP/XOou42Inpmwj/krw+0faIqvmBRhMynx0m2qKsmkZdGaBebRtK5A+1IgVmVuxI8lN6E5dZi4jbJWRFPn2Wl09N8vkKfIgnp+9ou2jDLvO/p49hxafVT3HCAHBwcHB8eTBKskSNRhPMW+3Zu8rCQkU3hRxD8+o/Ri/YDbZBKkoZJyt82gIUFuZCURksjckfz7TqI1Jw0H1ErK2TKNojq4kIVYRHL7dvTc1M2Uo31Mq0ESpOHWGdoweQAFOFuQWGxG9r69aOwnKVRo9BRUQ0y3ozpvL80ZGkytmf4JRTKy8e5GL8YeoIKmMiA95SfXUkzfdmRvJiaZXTsaOGMWDXORGr0ssTJ3G80YEkRu2uuak6N/X5q05qT+1QL3oeIUffVyAFkJ+CQSiYgvaEU+Qz+jn7QZkI7yY59TtKeceHwhCQU8EtmF0bsJhUzKV4/JMqob9OOnQ8jHQkB8Pl/74YnsqUvMDsrTy7PqUAx5CMQUubxQd4KDg4ODg+MJgqf5R3dPqCmqEP+P1hh57i1k/Wc+Ojzw5YEcDw81Ki+fxcm8CsjdAxDoYdVgXzAG5Q38euIsCu8p0CYoAG5mTcxssiijrryM/3z6MiYUvo6tC4ejg5OpN09ycHBwcHA8GXBJEAcqk2ZjSvFYfDXBp3GyxcHBwcHB8YTCamE0x5ON2cAl+IZLgDg4ODg4njJM3AlSozT7B5yqcEd4Ny+Y689ycHBwcHBwcPyvYyIJ4uDg4ODg4OB4MuGmwzg4ODg4ODieSrgkiIODg4ODg+OphEuCODg4ODg4OJ5KuCSIg4ODg4OD46mES4I4ODg4ODg4nkq4JIiDg4ODg4PjqYRLgjg4ODg4ODieQoD/ByXPTYer5+R5AAAAAElFTkSuQmCC;" vertex="1" parent="WIyWlLk6GJQsqaUBKTNV-1">
          <mxGeometry x="125" y="-60" width="577" height="173" as="geometry" />
        </mxCell>
        <mxCell id="72rKa9FHGVQ0cqd9UQtA-1" value="Sala" style="swimlane;fontStyle=0;align=center;verticalAlign=top;childLayout=stackLayout;horizontal=1;startSize=26;horizontalStack=0;resizeParent=1;resizeLast=0;collapsible=1;marginBottom=0;rounded=0;shadow=0;strokeWidth=1;" vertex="1" parent="WIyWlLk6GJQsqaUBKTNV-1">
          <mxGeometry x="610" y="140" width="160" height="120" as="geometry">
            <mxRectangle x="550" y="140" width="160" height="26" as="alternateBounds" />
          </mxGeometry>
        </mxCell>
        <mxCell id="72rKa9FHGVQ0cqd9UQtA-2" value="- capacidad: int" style="text;align=left;verticalAlign=top;spacingLeft=4;spacingRight=4;overflow=hidden;rotatable=0;points=[[0,0.5],[1,0.5]];portConstraint=eastwest;" vertex="1" parent="72rKa9FHGVQ0cqd9UQtA-1">
          <mxGeometry y="26" width="160" height="26" as="geometry" />
        </mxCell>
        <mxCell id="72rKa9FHGVQ0cqd9UQtA-3" value="- funciones:Funcion" style="text;align=left;verticalAlign=top;spacingLeft=4;spacingRight=4;overflow=hidden;rotatable=0;points=[[0,0.5],[1,0.5]];portConstraint=eastwest;rounded=0;shadow=0;html=0;" vertex="1" parent="72rKa9FHGVQ0cqd9UQtA-1">
          <mxGeometry y="52" width="160" height="26" as="geometry" />
        </mxCell>
        <mxCell id="72rKa9FHGVQ0cqd9UQtA-7" value="" style="line;html=1;strokeWidth=1;align=left;verticalAlign=middle;spacingTop=-1;spacingLeft=3;spacingRight=3;rotatable=0;labelPosition=right;points=[];portConstraint=eastwest;" vertex="1" parent="72rKa9FHGVQ0cqd9UQtA-1">
          <mxGeometry y="78" width="160" height="8" as="geometry" />
        </mxCell>
        <mxCell id="72rKa9FHGVQ0cqd9UQtA-8" value="- proyectarPelicula()" style="text;align=left;verticalAlign=top;spacingLeft=4;spacingRight=4;overflow=hidden;rotatable=0;points=[[0,0.5],[1,0.5]];portConstraint=eastwest;" vertex="1" parent="72rKa9FHGVQ0cqd9UQtA-1">
          <mxGeometry y="86" width="160" height="26" as="geometry" />
        </mxCell>
        <mxCell id="72rKa9FHGVQ0cqd9UQtA-10" value="Venta" style="swimlane;fontStyle=0;align=center;verticalAlign=top;childLayout=stackLayout;horizontal=1;startSize=26;horizontalStack=0;resizeParent=1;resizeLast=0;collapsible=1;marginBottom=0;rounded=0;shadow=0;strokeWidth=1;" vertex="1" parent="WIyWlLk6GJQsqaUBKTNV-1">
          <mxGeometry x="630" y="330" width="160" height="242" as="geometry">
            <mxRectangle x="550" y="140" width="160" height="26" as="alternateBounds" />
          </mxGeometry>
        </mxCell>
        <mxCell id="72rKa9FHGVQ0cqd9UQtA-11" value="- cine: Cine" style="text;align=left;verticalAlign=top;spacingLeft=4;spacingRight=4;overflow=hidden;rotatable=0;points=[[0,0.5],[1,0.5]];portConstraint=eastwest;" vertex="1" parent="72rKa9FHGVQ0cqd9UQtA-10">
          <mxGeometry y="26" width="160" height="26" as="geometry" />
        </mxCell>
        <mxCell id="72rKa9FHGVQ0cqd9UQtA-12" value="- dia: Dia" style="text;align=left;verticalAlign=top;spacingLeft=4;spacingRight=4;overflow=hidden;rotatable=0;points=[[0,0.5],[1,0.5]];portConstraint=eastwest;rounded=0;shadow=0;html=0;" vertex="1" parent="72rKa9FHGVQ0cqd9UQtA-10">
          <mxGeometry y="52" width="160" height="26" as="geometry" />
        </mxCell>
        <mxCell id="72rKa9FHGVQ0cqd9UQtA-13" value="- cantidadEntradas: int" style="text;align=left;verticalAlign=top;spacingLeft=4;spacingRight=4;overflow=hidden;rotatable=0;points=[[0,0.5],[1,0.5]];portConstraint=eastwest;rounded=0;shadow=0;html=0;" vertex="1" parent="72rKa9FHGVQ0cqd9UQtA-10">
          <mxGeometry y="78" width="160" height="26" as="geometry" />
        </mxCell>
        <mxCell id="72rKa9FHGVQ0cqd9UQtA-14" value="- pelicula: Pelicula" style="text;align=left;verticalAlign=top;spacingLeft=4;spacingRight=4;overflow=hidden;rotatable=0;points=[[0,0.5],[1,0.5]];portConstraint=eastwest;rounded=0;shadow=0;html=0;" vertex="1" parent="72rKa9FHGVQ0cqd9UQtA-10">
          <mxGeometry y="104" width="160" height="26" as="geometry" />
        </mxCell>
        <mxCell id="72rKa9FHGVQ0cqd9UQtA-60" value="- funcion: Funcion" style="text;align=left;verticalAlign=top;spacingLeft=4;spacingRight=4;overflow=hidden;rotatable=0;points=[[0,0.5],[1,0.5]];portConstraint=eastwest;rounded=0;shadow=0;html=0;" vertex="1" parent="72rKa9FHGVQ0cqd9UQtA-10">
          <mxGeometry y="130" width="160" height="26" as="geometry" />
        </mxCell>
        <mxCell id="72rKa9FHGVQ0cqd9UQtA-15" value="- total: float" style="text;align=left;verticalAlign=top;spacingLeft=4;spacingRight=4;overflow=hidden;rotatable=0;points=[[0,0.5],[1,0.5]];portConstraint=eastwest;rounded=0;shadow=0;html=0;" vertex="1" parent="72rKa9FHGVQ0cqd9UQtA-10">
          <mxGeometry y="156" width="160" height="26" as="geometry" />
        </mxCell>
        <mxCell id="72rKa9FHGVQ0cqd9UQtA-16" value="" style="line;html=1;strokeWidth=1;align=left;verticalAlign=middle;spacingTop=-1;spacingLeft=3;spacingRight=3;rotatable=0;labelPosition=right;points=[];portConstraint=eastwest;" vertex="1" parent="72rKa9FHGVQ0cqd9UQtA-10">
          <mxGeometry y="182" width="160" height="8" as="geometry" />
        </mxCell>
        <mxCell id="72rKa9FHGVQ0cqd9UQtA-35" value="- validarPrecioSegunDia()&#xa;" style="text;align=left;verticalAlign=top;spacingLeft=4;spacingRight=4;overflow=hidden;rotatable=0;points=[[0,0.5],[1,0.5]];portConstraint=eastwest;" vertex="1" parent="72rKa9FHGVQ0cqd9UQtA-10">
          <mxGeometry y="190" width="160" height="26" as="geometry" />
        </mxCell>
        <mxCell id="72rKa9FHGVQ0cqd9UQtA-17" value="- calcularTotal()" style="text;align=left;verticalAlign=top;spacingLeft=4;spacingRight=4;overflow=hidden;rotatable=0;points=[[0,0.5],[1,0.5]];portConstraint=eastwest;" vertex="1" parent="72rKa9FHGVQ0cqd9UQtA-10">
          <mxGeometry y="216" width="160" height="26" as="geometry" />
        </mxCell>
        <mxCell id="72rKa9FHGVQ0cqd9UQtA-19" value="Pelicula" style="swimlane;fontStyle=0;align=center;verticalAlign=top;childLayout=stackLayout;horizontal=1;startSize=26;horizontalStack=0;resizeParent=1;resizeLast=0;collapsible=1;marginBottom=0;rounded=0;shadow=0;strokeWidth=1;" vertex="1" parent="WIyWlLk6GJQsqaUBKTNV-1">
          <mxGeometry x="870" y="420" width="160" height="90" as="geometry">
            <mxRectangle x="550" y="140" width="160" height="26" as="alternateBounds" />
          </mxGeometry>
        </mxCell>
        <mxCell id="72rKa9FHGVQ0cqd9UQtA-20" value="- titulo:string" style="text;align=left;verticalAlign=top;spacingLeft=4;spacingRight=4;overflow=hidden;rotatable=0;points=[[0,0.5],[1,0.5]];portConstraint=eastwest;" vertex="1" parent="72rKa9FHGVQ0cqd9UQtA-19">
          <mxGeometry y="26" width="160" height="26" as="geometry" />
        </mxCell>
        <mxCell id="72rKa9FHGVQ0cqd9UQtA-21" value="- duracion: time" style="text;align=left;verticalAlign=top;spacingLeft=4;spacingRight=4;overflow=hidden;rotatable=0;points=[[0,0.5],[1,0.5]];portConstraint=eastwest;rounded=0;shadow=0;html=0;" vertex="1" parent="72rKa9FHGVQ0cqd9UQtA-19">
          <mxGeometry y="52" width="160" height="26" as="geometry" />
        </mxCell>
        <mxCell id="72rKa9FHGVQ0cqd9UQtA-25" value="" style="line;html=1;strokeWidth=1;align=left;verticalAlign=middle;spacingTop=-1;spacingLeft=3;spacingRight=3;rotatable=0;labelPosition=right;points=[];portConstraint=eastwest;" vertex="1" parent="72rKa9FHGVQ0cqd9UQtA-19">
          <mxGeometry y="78" width="160" height="8" as="geometry" />
        </mxCell>
        <mxCell id="72rKa9FHGVQ0cqd9UQtA-28" value="Funcion" style="swimlane;fontStyle=0;align=center;verticalAlign=top;childLayout=stackLayout;horizontal=1;startSize=26;horizontalStack=0;resizeParent=1;resizeLast=0;collapsible=1;marginBottom=0;rounded=0;shadow=0;strokeWidth=1;" vertex="1" parent="WIyWlLk6GJQsqaUBKTNV-1">
          <mxGeometry x="870" y="220" width="160" height="150" as="geometry">
            <mxRectangle x="550" y="140" width="160" height="26" as="alternateBounds" />
          </mxGeometry>
        </mxCell>
        <mxCell id="72rKa9FHGVQ0cqd9UQtA-30" value="- pelicula:Pelicula" style="text;align=left;verticalAlign=top;spacingLeft=4;spacingRight=4;overflow=hidden;rotatable=0;points=[[0,0.5],[1,0.5]];portConstraint=eastwest;rounded=0;shadow=0;html=0;" vertex="1" parent="72rKa9FHGVQ0cqd9UQtA-28">
          <mxGeometry y="26" width="160" height="26" as="geometry" />
        </mxCell>
        <mxCell id="72rKa9FHGVQ0cqd9UQtA-37" value="- precioRegular :float" style="text;align=left;verticalAlign=top;spacingLeft=4;spacingRight=4;overflow=hidden;rotatable=0;points=[[0,0.5],[1,0.5]];portConstraint=eastwest;" vertex="1" parent="72rKa9FHGVQ0cqd9UQtA-28">
          <mxGeometry y="52" width="160" height="26" as="geometry" />
        </mxCell>
        <mxCell id="72rKa9FHGVQ0cqd9UQtA-38" value="- precioPromo :float" style="text;align=left;verticalAlign=top;spacingLeft=4;spacingRight=4;overflow=hidden;rotatable=0;points=[[0,0.5],[1,0.5]];portConstraint=eastwest;" vertex="1" parent="72rKa9FHGVQ0cqd9UQtA-28">
          <mxGeometry y="78" width="160" height="26" as="geometry" />
        </mxCell>
        <mxCell id="72rKa9FHGVQ0cqd9UQtA-34" value="" style="line;html=1;strokeWidth=1;align=left;verticalAlign=middle;spacingTop=-1;spacingLeft=3;spacingRight=3;rotatable=0;labelPosition=right;points=[];portConstraint=eastwest;" vertex="1" parent="72rKa9FHGVQ0cqd9UQtA-28">
          <mxGeometry y="104" width="160" height="8" as="geometry" />
        </mxCell>
        <mxCell id="72rKa9FHGVQ0cqd9UQtA-45" value="- actualizarPelicula()&#xa;" style="text;align=left;verticalAlign=top;spacingLeft=4;spacingRight=4;overflow=hidden;rotatable=0;points=[[0,0.5],[1,0.5]];portConstraint=eastwest;" vertex="1" parent="72rKa9FHGVQ0cqd9UQtA-28">
          <mxGeometry y="112" width="160" height="26" as="geometry" />
        </mxCell>
        <mxCell id="72rKa9FHGVQ0cqd9UQtA-40" value="&lt;&lt;enumeration&gt;&gt;&#xa;Dia" style="swimlane;fontStyle=0;align=center;verticalAlign=top;childLayout=stackLayout;horizontal=1;startSize=37;horizontalStack=0;resizeParent=1;resizeLast=0;collapsible=1;marginBottom=0;rounded=0;shadow=0;strokeWidth=1;" vertex="1" parent="WIyWlLk6GJQsqaUBKTNV-1">
          <mxGeometry x="374" y="323" width="160" height="227" as="geometry">
            <mxRectangle x="550" y="140" width="160" height="26" as="alternateBounds" />
          </mxGeometry>
        </mxCell>
        <mxCell id="72rKa9FHGVQ0cqd9UQtA-41" value="- Lunes: string" style="text;align=left;verticalAlign=top;spacingLeft=4;spacingRight=4;overflow=hidden;rotatable=0;points=[[0,0.5],[1,0.5]];portConstraint=eastwest;" vertex="1" parent="72rKa9FHGVQ0cqd9UQtA-40">
          <mxGeometry y="37" width="160" height="26" as="geometry" />
        </mxCell>
        <mxCell id="72rKa9FHGVQ0cqd9UQtA-47" value="- Martes: string" style="text;align=left;verticalAlign=top;spacingLeft=4;spacingRight=4;overflow=hidden;rotatable=0;points=[[0,0.5],[1,0.5]];portConstraint=eastwest;" vertex="1" parent="72rKa9FHGVQ0cqd9UQtA-40">
          <mxGeometry y="63" width="160" height="26" as="geometry" />
        </mxCell>
        <mxCell id="72rKa9FHGVQ0cqd9UQtA-48" value="- Miercoles: string" style="text;align=left;verticalAlign=top;spacingLeft=4;spacingRight=4;overflow=hidden;rotatable=0;points=[[0,0.5],[1,0.5]];portConstraint=eastwest;" vertex="1" parent="72rKa9FHGVQ0cqd9UQtA-40">
          <mxGeometry y="89" width="160" height="26" as="geometry" />
        </mxCell>
        <mxCell id="72rKa9FHGVQ0cqd9UQtA-51" value="- Jueves: string" style="text;align=left;verticalAlign=top;spacingLeft=4;spacingRight=4;overflow=hidden;rotatable=0;points=[[0,0.5],[1,0.5]];portConstraint=eastwest;" vertex="1" parent="72rKa9FHGVQ0cqd9UQtA-40">
          <mxGeometry y="115" width="160" height="26" as="geometry" />
        </mxCell>
        <mxCell id="72rKa9FHGVQ0cqd9UQtA-50" value="- Viernes: string" style="text;align=left;verticalAlign=top;spacingLeft=4;spacingRight=4;overflow=hidden;rotatable=0;points=[[0,0.5],[1,0.5]];portConstraint=eastwest;" vertex="1" parent="72rKa9FHGVQ0cqd9UQtA-40">
          <mxGeometry y="141" width="160" height="26" as="geometry" />
        </mxCell>
        <mxCell id="72rKa9FHGVQ0cqd9UQtA-49" value="- Sabado: string" style="text;align=left;verticalAlign=top;spacingLeft=4;spacingRight=4;overflow=hidden;rotatable=0;points=[[0,0.5],[1,0.5]];portConstraint=eastwest;" vertex="1" parent="72rKa9FHGVQ0cqd9UQtA-40">
          <mxGeometry y="167" width="160" height="26" as="geometry" />
        </mxCell>
        <mxCell id="72rKa9FHGVQ0cqd9UQtA-46" value="- Domingo: string" style="text;align=left;verticalAlign=top;spacingLeft=4;spacingRight=4;overflow=hidden;rotatable=0;points=[[0,0.5],[1,0.5]];portConstraint=eastwest;" vertex="1" parent="72rKa9FHGVQ0cqd9UQtA-40">
          <mxGeometry y="193" width="160" height="26" as="geometry" />
        </mxCell>
        <mxCell id="72rKa9FHGVQ0cqd9UQtA-43" value="" style="line;html=1;strokeWidth=1;align=left;verticalAlign=middle;spacingTop=-1;spacingLeft=3;spacingRight=3;rotatable=0;labelPosition=right;points=[];portConstraint=eastwest;" vertex="1" parent="72rKa9FHGVQ0cqd9UQtA-40">
          <mxGeometry y="219" width="160" height="8" as="geometry" />
        </mxCell>
        <mxCell id="72rKa9FHGVQ0cqd9UQtA-52" value="" style="endArrow=diamondThin;endFill=1;endSize=24;html=1;rounded=0;exitX=1;exitY=0.5;exitDx=0;exitDy=0;entryX=0;entryY=0.5;entryDx=0;entryDy=0;" edge="1" parent="WIyWlLk6GJQsqaUBKTNV-1" source="zkfFHV4jXpPFQw0GAbJ--19" target="72rKa9FHGVQ0cqd9UQtA-3">
          <mxGeometry width="160" relative="1" as="geometry">
            <mxPoint x="540" y="330" as="sourcePoint" />
            <mxPoint x="700" y="330" as="targetPoint" />
          </mxGeometry>
        </mxCell>
        <mxCell id="72rKa9FHGVQ0cqd9UQtA-53" value="" style="endArrow=diamondThin;endFill=0;endSize=24;html=1;rounded=0;entryX=0;entryY=0.5;entryDx=0;entryDy=0;exitX=1;exitY=0.5;exitDx=0;exitDy=0;" edge="1" parent="WIyWlLk6GJQsqaUBKTNV-1" source="72rKa9FHGVQ0cqd9UQtA-3" target="72rKa9FHGVQ0cqd9UQtA-30">
          <mxGeometry width="160" relative="1" as="geometry">
            <mxPoint x="540" y="330" as="sourcePoint" />
            <mxPoint x="700" y="330" as="targetPoint" />
          </mxGeometry>
        </mxCell>
        <mxCell id="72rKa9FHGVQ0cqd9UQtA-55" value="" style="endArrow=diamondThin;endFill=0;endSize=24;html=1;rounded=0;entryX=0.5;entryY=1;entryDx=0;entryDy=0;" edge="1" parent="WIyWlLk6GJQsqaUBKTNV-1" target="72rKa9FHGVQ0cqd9UQtA-28">
          <mxGeometry width="160" relative="1" as="geometry">
            <mxPoint x="950" y="418" as="sourcePoint" />
            <mxPoint x="880" y="269" as="targetPoint" />
          </mxGeometry>
        </mxCell>
        <mxCell id="72rKa9FHGVQ0cqd9UQtA-56" value="" style="endArrow=open;endFill=1;endSize=12;html=1;rounded=0;entryX=1.006;entryY=0.808;entryDx=0;entryDy=0;entryPerimeter=0;exitX=-0.012;exitY=1;exitDx=0;exitDy=0;exitPerimeter=0;" edge="1" parent="WIyWlLk6GJQsqaUBKTNV-1" source="72rKa9FHGVQ0cqd9UQtA-13" target="72rKa9FHGVQ0cqd9UQtA-48">
          <mxGeometry width="160" relative="1" as="geometry">
            <mxPoint x="540" y="400" as="sourcePoint" />
            <mxPoint x="700" y="400" as="targetPoint" />
          </mxGeometry>
        </mxCell>
        <mxCell id="72rKa9FHGVQ0cqd9UQtA-57" value="" style="endArrow=diamondThin;endFill=0;endSize=24;html=1;rounded=0;exitX=1;exitY=1;exitDx=0;exitDy=0;" edge="1" parent="WIyWlLk6GJQsqaUBKTNV-1" source="zkfFHV4jXpPFQw0GAbJ--17">
          <mxGeometry width="160" relative="1" as="geometry">
            <mxPoint x="540" y="390" as="sourcePoint" />
            <mxPoint x="630" y="330" as="targetPoint" />
          </mxGeometry>
        </mxCell>
        <mxCell id="72rKa9FHGVQ0cqd9UQtA-58" value="" style="endArrow=diamondThin;endFill=0;endSize=24;html=1;rounded=0;exitX=0;exitY=0.5;exitDx=0;exitDy=0;" edge="1" parent="WIyWlLk6GJQsqaUBKTNV-1" source="72rKa9FHGVQ0cqd9UQtA-37">
          <mxGeometry width="160" relative="1" as="geometry">
            <mxPoint x="540" y="390" as="sourcePoint" />
            <mxPoint x="790" y="330" as="targetPoint" />
          </mxGeometry>
        </mxCell>
        <mxCell id="72rKa9FHGVQ0cqd9UQtA-59" value="" style="endArrow=diamondThin;endFill=0;endSize=24;html=1;rounded=0;exitX=0;exitY=0.5;exitDx=0;exitDy=0;entryX=1;entryY=0.5;entryDx=0;entryDy=0;" edge="1" parent="WIyWlLk6GJQsqaUBKTNV-1" source="72rKa9FHGVQ0cqd9UQtA-20" target="72rKa9FHGVQ0cqd9UQtA-14">
          <mxGeometry width="160" relative="1" as="geometry">
            <mxPoint x="880" y="295" as="sourcePoint" />
            <mxPoint x="800" y="340" as="targetPoint" />
          </mxGeometry>
        </mxCell>
      </root>
    </mxGraphModel>
  </diagram>
</mxfile>
